<?xml version="1.0"?>
    
<!--********* Copyright (c) 2024 Pareto Softare, LLC DBA Simplemaps.com ***************************************
************* Free for Commercial Use, full terms at  https://simplemaps.com/resources/svg-license ************
************* Attribution is appreciated! https://simplemaps.com *******************************************-->

<svg baseprofile="tiny" fill="#6f9c76" height="1000" stroke="#ffffff" stroke-linecap="round" stroke-linejoin="round" stroke-width=".5" version="1.2" viewbox="0 0 1000 1000" width="1000" xmlns="http://www.w3.org/2000/svg">
 <g id="features">
  <path id="philippines" d="M450.4 905.1l0.6 0.1 0.9 0.8 0.8 1.1 0.3 0.9-0.6 1.2-1 0.1-1.6-0.5-0.3-0.2-0.6-0.6-0.5-0.7-0.2-0.5 0.2-0.6 0.6-0.5 0.7-0.4 0.7-0.2z m55.8-24.8l1.5-0.6 0.6 0 0.1 0.6-0.3 0.3-1.3 0.7-2.4 0.9-0.6-0.2-2.8-1.8-1.1-1.2-0.4-1 0.9 0.1 2.8 1.8 1.3 0.5 1.7-0.1z m208.5-49.3l0.1 0.5-0.2 0.5-0.3 0.7-0.4 1.2-0.4-0.2-0.8-1-0.4-1.1-0.4-2.3-0.7-1.4-0.2-0.5-0.2-2-0.3-0.2-0.5-0.1-1-0.4-0.4-0.1-0.2-0.2-0.1-0.6 0.1-0.6 0.2-0.6 0.3-0.5 0.3-0.2 0.4-0.6 0.3-2.7 0.3-0.8 0.5-0.2 0.4 0.2 0.3 0.3 0.2 0.5 0.9 0.8 0.9 0.7 0.8 0.8 0.3 1.2-0.3 6.9 0.1 1.2 0.4 0.8z m-151.1-23.5l-1.1-0.2-0.4-0.2 0.3 0.9 0.1 0.6-0.1 0.4-0.4 0.3-0.3 0.1-0.4-0.1-0.3 0.1-1.6 1.1-0.6 0.4-0.5 0.1-0.7 0.1-0.3 0.1-0.2 0.2-0.3 0.7-0.2 0.2-0.8 0.2-0.6-0.2-0.4-0.6-0.4-0.8-0.3-1.4-0.1-2 0.5-1.9 1.4-0.7 0.8 0.5 0.6 0.8 0.6 0.6 0.9-0.1 0.4-0.5 0-0.7 0.2-0.6 0.6-0.4 1 0.4 1.1 0.8 0.9 0.9 0.6 0.9z m-92.2-121.9l0.2 0.2 0 0.2-1.2 1.6-0.6 0.6-0.6 0.4 0.1-0.4 0.5-1.2 0.3-0.2 0.6-0.3 0.3-0.5 0.2-0.6 0.5-0.5 0 0.3-0.1 0.2-0.1 0.1-0.1 0.1z m254-2.9l0.6 0.4-0.2 1.2-1 2.1 0.3 0.6 0 0.9-0.3 0.8-0.5 0.3-0.9 0.2-0.3 0 0.3-0.9-0.4-0.3-0.6-0.1-0.5 0 0-0.4 0.5 0 0.2 0 0-0.4-1.1-0.7 0 0.4-0.1-0.5 0-0.6 0.5-1.2 0.2-0.3 0.2-0.2 0.2-0.1 0.1-0.5 0-0.5 0-0.6 0-0.4-0.5-0.8-0.1-1.3 0.4-1.2 1-0.4 0.3 0.3 0.1 0.3-0.1 0.5 0.5-0.2 0.2-0.2 0.1 0.9 0 1.3 0.1 1.1 0.8 0.5z m31 129.2l0.5 0.3 1.7 1 0.4 0-0.3 1.1-1.3 1.6-0.2 1-0.2 0.4-0.4 0.2-0.5 0.1-0.4 0.2-0.3 0.5-1.1 2.9-0.3 0.6-1.8 1.6-0.8 1.2-0.4 1.5-0.1 1.9-0.8 1.1-1.8 0.2-2.1-0.4-1.6-0.7-1.3 1.2-0.8 1.6-0.3 1.6-0.1 1.4 0.3 0.6 1.4 1.2 0.5 0.5 0.2 0.9 0.1 1.1-0.1 1-0.4 0.4-1.6-0.6-1-1.5-1.2-3.5-1.4-1.5-1.6-0.8-1.1 0.4 0 2.3-0.3 0-0.2-0.3-0.6-0.8-0.2 1.1 0.6 1.2 0.7 1.1 0.8 1.9 1 0.9 1 0.7 0.6 0.5 0.1 1.2-0.7 2.2-0.8 4.7-0.1 8-0.9 4.2-0.2 4.9-0.4 0.9-0.7-0.2-0.2-0.8-0.3-2.7-0.1-0.6-1.8-1.3-0.2-0.5-0.1-0.6 0.1-0.7 0-0.6-1.3-2.5-0.7-0.9-0.3-1.1-0.7-6.7 0.1-1.3 0.7-3.4-0.1-1.1-0.5-2-0.2-1.1 0-1.5-0.2-0.6-0.6-0.3-1.4-0.4-1-0.6-2.1-2.9-0.3-1 0.4-2.5 0.1-1.1-0.6-1.2-3.3-3.1-0.6-0.9-0.3-0.8-0.3-2.2-2.2-5.2 0-2.2 0.1-1.2 0-1.1-0.4-0.7-0.8-0.2-0.3-0.1-0.9 0.2-3.3 2.4-3.1 1.8-0.6 0.5-0.5 0.4-0.6 1.1-0.1 1.2 0.2 3.5 0 1.1-0.2 0.5-0.5 0.7-0.1 0.5-0.2 0.5-2 1.9-1.5 0.8-1.8 0.4-1.7 0.9-1.2 1.9-0.1 2.4-0.2 1.2-0.6 0.5-2.4 2.9-1.2 2.1-0.8 2.3-0.4 2.5-0.2 2.6 0.2 0.9 0.7 2.1 0.2 1.1 0.4 0.5 0.9 0.4 0.7-0.4-0.1-1.5 1.7 1.2 2.3 3 1.4 1.4 1.1-0.6 1 0.4 0.9 0.9 0.4 1 0 2.1 0.2 0.8 1.6 3.3 0.6 0.8 0.2 0.4 0 0.6-0.1 1.2 0.1 0.6 0.2 0.4 0.5 0.7 2.6 7 0.2 0.9 0 1.2-0.2 1.1-0.6 1-0.2 0.6 0.4 1.1-0.2 0.5-0.2 0.5-0.4 1.6-0.9 2.2-3.9 4.8-5.2 7.3-3.3 5.9-0.8 1-1 0.9-0.8 0.4-0.9 0.1-2.6-0.2-0.8-0.2-0.3-0.7-0.1-4.2-0.3-1.1-0.4-0.8-0.5-0.6-0.7-0.3-1.2-0.1-0.3-0.2-0.3-0.4-0.2-0.6-0.1-0.5-0.3-0.6-0.5-0.3-0.6-0.1-0.4-0.2-0.6-1.1 0.2-0.8 0.5-0.8 0.2-0.9 0.2-0.8 0.4-0.9 0.9-1.4 2-2.5 0.8-1.6 0.1-2.2-0.2-0.9-0.7-1.9-0.2-0.7-0.5-0.5-0.5 0-0.6-0.1-2 0-0.7-0.6-0.6-0.3-0.5 0.2-0.2 0.5 0.1 1.4-0.1 0.5-0.5 0.8-1.8 5.2-1.3 3.7-1 1.2-1 0-2.6-0.5-2.1 0.7-1.3-0.3-5.4-2.6-1.4-0.4-2.4-1-0.6 0-0.7 0.1-0.5-0.1-1.4-0.5-3.4-2-0.4 0.3-1.6-0.7-0.6-0.4-0.2-0.3-0.1-0.5-0.2-0.5-0.4-0.2-0.9-0.2-7.5-4.3-2.8-1.2-6.6-2.9-1-0.6-1.4-1.3-0.7-1-0.7-2-0.6-0.9-3.6-3.8-1.4-2-0.9-1.9-0.6-2.8-0.1-1.1-0.4-1.2-0.1-0.6 0.3-0.3 0.8 0 0.2-0.3-0.1-0.3 0-4.7-0.1-1.2-1-3.4 0.2-1.5 0.1-1.1-0.2-1.1-1-0.4-0.2 0.1-0.5 0.8-0.4 0.3-0.1-0.1-0.1-0.3-0.2-0.1-0.4-0.1-0.4-0.4-0.3-0.5-0.2-0.4 0-0.6 0.3-1 0.1-0.5 0.1-5.7 0.8-2.7 2.2-5.4 1.1-1.2 0.9-0.2 1.3-0.7 2-1.3 2-1.7 0.9-0.9 0.6-1.5 1-0.9 0.3-0.5 0.1-0.5-0.1-1.7 0.1-1.4 0.3-1.1 1.1-2-0.8-0.6-0.7-0.1-1.7 0.3-0.6-0.3-0.4-0.8-0.3-0.5-0.5-0.2-0.6-0.9-2.5-5.4-1.6-2.3-2.4-1.6-0.4-0.1-2.9-2.1-2.6-1.4-0.4 0.4-0.9-0.4-1.3-0.2-2.4-0.1-1.3-0.3-0.8-0.7-2.9-3.9-1.1-0.8-1.2-0.3-1.3-0.1-2.3-0.9-0.3-0.1-1.2-0.2-3.4 0.2-1 0.2-1.3 0.5-1.2 0.6-0.7 0.6 0.2 1.9 1.5 1.4 1.2 1.7-0.7 2.4-0.5 0.6-0.5 0.5-0.6 0.4-0.6 0.3-1.9 0.4-0.5 0.2-0.2 0.4 0 0.6 0 1.2-0.2 0.2-1.1-0.7-0.5 0-0.5 0.9 0.7 1.1 1.1 1 0.5 0.9 0.4 1.3 0.8 0.7 0.9 0.6 0.9 0.8 0.4 1.2-0.1 1.2-0.3 1.1-0.6 0.9-0.5 0.2-0.6-0.2-1.7-1.3-1.7-0.8-0.8-0.5-1.5-1.7-0.5-0.9-0.8-0.5-0.2-0.3 0-1.2-0.1-0.4-0.2-0.4-0.9-0.3-1.1 0.1-0.9 0.4-0.4 0.7-0.3 0.8-0.7 0.4-0.9 0-0.7-0.3-1.6-1.4-0.7-1-0.3-1.1 0.3-1.1 0.8-0.4 0.9-0.2 1-0.3 0.5-0.9 0-1.1-0.6-1-1.2-0.4-0.7-0.5-0.3-1.4-0.1-1.5-0.2-1-0.6-0.5-0.6 0.5-0.6 1-0.6 1-1.5 1.5-0.3 0.7 0 0.5 0.2 0.6-0.1 0.7-0.2 0.2-0.7 0.5-0.2 0.2 0.1 0.3 0.2 0.3 0.1 0.2 0 0.5-0.3 0.9-0.8 1.2-0.4 0.8-0.1 0.8 0.1 1.6-0.3 0.6-0.6 0.2-0.3-0.1-0.3-0.3-0.5-0.2 0-0.1-1.3-0.3-0.4-0.7-0.8-2.1-0.6-0.5-0.6 0.2-0.7 0.7-0.6 0.7-0.3 0.6 0 0.8 0.1 0.5-0.1 0.4-0.7 0.5-0.6 0.3-0.8 0.1-0.8 0-0.8-0.4 0.4-0.6-0.2-0.5-0.3-0.2-0.2 0-0.1 0.2-0.3 0.1-0.2 0-0.2-0.1 0-0.3 0.1-0.2 0.2-0.2 0.1 0-0.1-1.2 0.3-0.7 0.6-0.2 1.1 0.6 0.1-1.2-0.4-0.8-0.6-0.7-0.3-0.8-0.4-3.4-0.3-0.9 0.4-0.7 0.4-1.1 0.2-1.1 0.1-1-0.5-0.8-1.3-0.1-2.2 0.3-0.5-0.3-0.8-1.1-0.6-0.4-2.4 0-0.4 0.1-1.1 0.5-0.7 0.2-1.2 0.6-4.5 3.6-1.4 1.6-2.2 3.1-0.6 1 0 0.6 1 0.3 1.1-0.3 0.7 0 0 1.4-0.4 0.7-0.6 0.9-0.7 0.9-0.6 0.4 0.5-1.9-0.1-0.3-0.6-0.1-0.6 0.5-0.4 0.7-0.2 0.5-0.6 0.6-2.4 1.4-0.7 1.1 0.3 1.2 0.8 1.1 0.6 1-0.4 1.1-0.4 0.5-1 1.7-0.7 0.4-0.5 0-0.6 0-0.7 0.2-1 1.4-0.8 2.4-0.7 4.6-0.2 2.5-0.3 1-2.2 3.1-1.9 4.9-0.7 1.3-1 0.7-0.6 0.8-0.3 0.2-1.2-0.1-0.5-0.1-2.6-0.9-4.1-2.2-1.3-1.2-2.1-4.2 0-4.5 1.9-4.2 3.8-3.3 1.8-0.9 0.5-0.3 0.2-0.3 0.1-0.5-0.1-0.5-0.4-0.1-0.6-0.7 0.1-1.4 0.7-2.4-0.1-1.7 0.1-0.6 0.2-0.5 0.7-1 0.2-0.5 0.1-1.3 0.4-0.7 0.7-0.6 0.9-0.5 0.7-0.5 0.9-0.9 0.5-0.8-1.8-0.8-0.1-0.9 0.6-2 0-2.4-0.2-1.2-0.7-0.5-0.5-0.7 0.5-1.4 1.3-2.4 4.6-5.7 1.3-2.4 0.7-0.8 0.6-0.5 1.5-1.1 1.7-0.5 2-1.2 4.1-1.4 1.4-0.2 0.8 0.5 0.2-0.5 0.4-0.2 0.4 0 0.4 0.3 1-0.4 4.1-0.9 2.1-0.9 0.6-0.4 1-1.8 0.6-0.8 0.2 0.6 0.5 1.2 1 0.6 1.3 0.3 1.2-0.1 5.2-0.8 0.7-0.6 0.6-0.1 1.3 0 0.6-0.1 0.5-0.2 1.1-0.6 3.1-2.6 0.6-1.3-0.7-0.9-1.9-1.3-0.2-0.4-0.2-1.2 0-0.3 0.3-0.3 1-0.6 0.2 0 0.1-0.3 0.2-0.3 0.3-0.3 0.1-0.6-0.1-0.6-0.3-1.2 0.1-0.6 0.3-0.9 1.2-1.6 0.3-1 0.2-0.7 0.6-0.8 0.7-0.8 0.7-0.5 0.8-0.3 4.2-0.6 1.8-0.6 0.9 0 0.2 0.2 0.6 0.7 0.3 0.2 0.5 0.1 3.2-0.3 0.9-0.5 0.7-0.7 0.8-1.2 0.2-0.4 0.8-2.5 0.4-0.6 0.8-0.2 0.3 0.1 0.3 0.2 0.3 0.1 0.4 0 0.2-0.2 0.7-0.6 0.5-0.3-0.3-0.6-1.7-2-0.4-0.6-0.1-0.6 0.4-0.2 0.7-0.1 0.7-0.1 0.4 0.3 0.3 0 1.3 0.8 0.9 0.7 0.6 0.1 0.6 0 0.7-0.3 0 2.8 0.4 1.3 1-0.1 0.3 0.2 0.2 0.1 0.7 0.3 0.3 0.2 0.2 0.3 0.5 1.1 0.6-0.5 0-0.5 0-0.6 0.2-0.6 0.3-0.4 0.8-1.1-0.7-0.6 0.7-0.4 0.9 0.1-0.2 0.9 4.3 1 0.7 0.3 0.5 0.5 0.4 0.9 0.4 0 0.4-0.4 0.2 0.1 0.5 1-0.1 0 0.6 1.7 0.2 0.3 0.3 0.8 2.3 2.8 0.9 1.8 0.6 2.4 0.5 2.4 0.2 6.5 0.8 3.2-0.1 1.1-0.5 0.6-5.7 5.1-1.1 0.6-2.4 0.1-0.9 0.5-0.4 1.4 0 0.1-0.1 0.5-0.2 1.1-0.1 0.6 0.1 0.1 0.2 0.2 0.7-0.3 0.6-0.4 0.3-0.2 1.9-1.1 7.1-5.7 0.7-0.2 1.1-0.2 0.8-0.5 1.2-1.5 1.3-1 1.7-0.7 1.9-0.5 6.4 0 2.3-0.3 1.8-0.9 0.6-0.7 0.8-1.6 0.7-0.8 0.2-0.6-0.2-0.6-0.4-0.5-0.2-0.6 0.1-0.7 0.2-0.5 0.5-0.8 0-0.3-0.1-0.5 0.1-0.3 0.1-0.2 0.4-0.3 0.2-0.2 0.5-1.2 0.1-0.6 0.2-2 0.2-1.1 0.8-2.2 1.1-1.9 1.6-1.8 1.8-1.4 2.1-0.9 1.4 0 0.3 0.5 0 0.9 0.2 0.8 0.3 0.1 1.2 0.2 0.1 0.1 0.4 0.1 0.5 0.2 0.8 0.5 1.6 1.8 0.6 0.4 0.9 0.3 3.1 0.1-0.5 0.9-0.4 1.1-0.2 1.2 0 1.2 0.4 0 0.4-1.4 0.6-0.9 1.1-0.4 1.6 0.5 0.2-0.4 0.9-0.7 0.2-0.1 0.7-0.2 0.2-0.1 0-0.3-0.2-0.3-0.1-0.3-0.1-0.2 0.2-1.7 0.2-0.5 0.2-0.4 0.6-0.9 0.3-0.6-0.2-1-1-1.9-0.3-1.1 0.3-1.2 0.6-0.7 0.7-0.6 0.6-0.9-0.4-1.1 0-1.2 0.4-2.4 0-4.6-0.4-2.4 0.1-1.2 0.5-1.1 0.4-0.5 0.6-0.5 0.6-0.3 0.6 0.2 0.6 0.4 0.6 0 0.5-0.1 0.7-0.1 1 0.3 1.1 0.4 0.8 0.7 0.4 0.7 0.5 0.4 4.2 2.3 0.4 0.4 1.3 1.6 0.8 0.5 1.1 1.8 0.7 0.6 0.5-0.1 1.2-0.7 1.1-0.4 1-0.5 0.5-0.8 0.5-4.7-0.2-1-0.2-0.3-0.3-0.3-0.2-0.4-0.1-0.5 0.1-0.6 0.5-1.1 0.2-0.7 0-0.7 0.1-0.4 0.3-0.3 0.5-0.5 0.5-0.1 0.5 0.5 0.6 1.3 1.6 2.2 1.1 0.8 1.2 0.3 3.5 0.2 2.3 0.5 1.1 0.1 1.2-0.3 2.9-1.6 0.5-0.6 0.4-1.2 0.4-1.9 0-5.8-0.1-0.9-0.3-0.6-0.4-0.5-0.3-0.7 0-0.5 0.1-0.9-0.1-0.5-0.1-0.5-0.5-1.1-0.3-1.4-1.1-1.7-0.3-1.6-0.3-0.4-0.2-0.3-0.1-0.3 0-1.6-0.1-0.3-0.1-0.8-1.2-3.1-0.1-0.5-0.2-1.1-1.9-7.4-0.1-1 0.2-1 0.3-0.8 2.6-4.4 0.2-0.5 0.7 0.8 0.9 0.8 1 0.7 1.8 0.5 1.5 0.8 1.1 0.1-0.3 1.3 0.5 1.6 0.6 1.5 0.3 1.4 0.5 1 1.3 1 1.5 0.6 1.1-0.2-0.1 0.2 0 0.2-0.1 0.2-0.2 0.2 0.7 0 0.4 0.2 0.4 0.5 0.5 0.1 1.2-0.1 0.5 0 1 1.2 0.5 0.3 0.5 0.2 3.1 0.4 1 0.6 1.8 1.6 0.5 0.2 0.7 0 0.6 0.1 0.2 0.4 0.1 0.5 0.5 0.7 0.2 0.5 0.5-1 0.2-0.5 0.3 0 0 0.9 0 0.6-0.2 0.3-0.5 0.5-0.6 0.2-1.5 0.4-0.4 0.5-0.1 0.7 0.3 0.5 0.6 0.4 0.6 0.2 0.9 0.2 0.6-0.2 1.5-0.7-0.1 2.2 0.2 1.8 0.8 1.7 2.5 2.6 0.4 0.2 0.6 0.1 0.7-0.1 1.1-0.5 1.8-0.6 1.9-1.9 1.1-0.6 1.1 0.1 0.2 0.8-0.2 1-1.1 1.8-0.3 1.3-0.4 2.4 0 1.8-0.4 2.5 0.2 0.6 0.6 0.2 0.7 0.1 0.5 0.2 0.4 0.4 0.5 1.4 0.4 0.6 3.9 3.9 0.5 1.1 0.1 0.7 0.6 2.1-0.2 0.8 0 0.5 0.7 0.4-0.1 0.4-0.3 0.4-0.1 0.1-0.4 1.3-0.6 1.3-0.9 1.1-1.2 0.4-2 1.4-0.3 0.1 0 0.8 0.4 0.4 1 0.7 0 0.3-0.2 0.1 0 0.1-0.1 0.2-0.7-0.3-0.6-0.1-1.1 0-0.7 0.2-1.3 1.1-1.9 0.8-1 1.3-0.5 1.2 1.1 1.2 0.9 2.4 0.6 0.7 0.5 0.1 1.7-0.1 1.1 0.4 0.5 0 0.6-0.4-1.1-0.7-0.3-0.4 0.3-0.4 0.6 0.1 0.7 0.3 0.7 0.1 0.6-0.5 1.2 0.6 3.5 0.6 0-0.1 0.2-0.2 0.2-0.1 0.3 0 0 0.1 0.2 0.5 0.4 0.7 1.1 0.8 0.2 0.5-0.4 0.8 0.3 0.1 0.2 0.3 0.3 0.3-1.5-0.1-0.5 0.2-0.3 0.4-0.1 1.3 0.1 0.3 0.8-0.3 0.2 0.9-0.4 1.1-1.3 1.7-0.2 0.1-0.6 0.4-0.5 0.4 0.4 0.2 0.2 0.3 0.7 1.4 0.5 0.4 0.8 0.2 0.4 0.5-0.6 1.3-1.7 2-0.3 0.9 0.4 1 0.8 0.5 0.8-0.2 0.9-0.5 1.6-0.6 1.9-1.6 0.2 0.6-0.3 4.6-0.2 0.8 0.1 0.8 0.6 1.1-1.3 0.7-0.6 2 0.2 2.1 1 1.4-1 1-2.1 1.5-0.6 1.2 0 0.7-0.1 0.7 0.5 1.5 0.8 1.4 1 0.9 1.6 1 0.2 0.3 0.2 0.6 1.3 1.8 1.3 0.8 2.7 0.3 1.2 0.4-0.4 1.2-0.2 1.2-0.2 2.6 0.3 1.3 1 2.7 0.4 2.5 0.4 1.2 0 1.1-0.6 1.1-0.6 0.4-0.6 0.2-0.4 0.4-0.2 0.8 0.2 0.2 1.2 0.9-0.4 1.3-0.1 2.5-0.6 1z m-68.3-144.7l0.6 1.8-0.1 0.2-0.4 0.2-0.3 0.4-0.3 0.3-0.6-0.1-0.4-0.3-0.1-0.4-0.1-0.4-0.2-0.4-1.2-1.5-2.1-3.4-1.8-1.1-1-0.8-0.4-0.9-0.7-2.3 0-1.2 0.7-0.8 0.6 0 0.5 0.3 0.9 0.8 2.2 0.9 0.7 0.5 0.5 0.9 0.8 3.7 0.5 0.7 0.7 0.8 0.7 0.9 0.3 1.2z m-49.1-39.3l0.3 0.6 0.2 0.7 0.1 1.4-0.6 0.7-4.2 2.1-0.9-0.7 0.3-0.8 0.6-0.7 0.4-1 0.1-0.7 0.2-0.9 0.3-0.8 0.4-0.6 0.8-0.4 0.7 0 0.8 0.4 0.5 0.7z m4.7-1.2l2 1.1 0.9 1.5-0.6 1.3-2.5 0.6-2.9-1 0-1.9 1.4-1.6 1.7 0z m72.7-1.2l0.5 0.8-0.3 0.6-0.7 0.4-0.8 0.1-1 0.1-0.6-0.1-0.4-0.3-0.6-0.6-0.5-0.4-2-0.9-1-0.7-0.3-1.4 0.4-1.4 1.2-0.7 1.2 0.5 0.7 2.7 0.9 1 0.8 0.1 1.7-0.1 0.8 0.3z m-331.9-18.3l0.4 0.7 0.3 0.7 0.2 0.8 0 0.8-0.4 0-0.3-0.2-0.4 0-0.4 0.2-0.4 0.4-0.3-0.9-0.6-0.6-0.6-0.3-0.3-0.3-0.2-2.1 0.2-0.7 2.2 0.9 0.6 0.6z m-1-7.1l0.8 0.5 0.2 0.5-0.2 0.5-1 0.9-1.1 0.8-0.3 0.2-0.7-0.4-0.2-0.6 0.2-0.8 0.1-0.5 0.2 0.1 0.9-0.5 0.3-0.2 0.1-0.2 0.2-0.2 0.5-0.1z m267.3-19.9l1.2 0.6 0.2 1.1-0.5 1.9-0.4 0.6-0.9 0.3-3.2 0-1.3-0.4-1.1 0-0.2 0.5-0.2 0.3-0.4 0-0.3-0.2-0.2-0.3-0.1-0.4-0.1-0.2-1.8-1.9-0.7-0.9-1.4-3.8-0.3-1.2-0.2-0.5-1.2-1.4-0.3-0.5 1 0.1 2.7-0.8 0.7-0.1 2 0.2 1.5-0.2 0.5 0.1 0.9 0.4 1 0.6 0.8 0.8 0.6 2 1.3 2.7 0.4 0.6z m11.6-3.7l0.3 0.6 0.4 0.4 0.6 0.3 0.9 0.2-0.2 0.5-0.1 0.6-0.1 1.3-0.2 0.6-0.3 0.5-0.4 0.2-1.3-1.5 0.1-0.2-0.1-0.5-0.3-0.3-0.8 0.7-0.7-1.9 0.3 0.1 0.4 0.2-0.1-0.9-0.5-0.8-0.7-0.6-0.7-0.3-0.5-0.2-0.3-0.6-0.1-0.7-0.2-0.5-0.4-0.6 0-0.4 0.6-1.1 0.3 0 0.1 0.1 0.6 0.6 1.8 1.1 0.2 0.2 0.2 0.2 0.1 0.3 0.1 0.4 0.1 0.3 0.8 0.4 0.2 0.5-0.1 0.8z m-135-376.2l1.1 1.5 0.4 2.3-0.3 2.5-0.7 2.4-1 1.8-1.4 1.8-0.8 0.8-1.8 1.3-1.8 1.6-0.3 0.4-0.2 0.8-0.1 0.7 0.2 0.5 0.2 0.4 0.1 0.5 0 1.9 0.3 1.8 0 0.7-2.3 10.5 0 0.6 0.1 1.3 0 0.4-0.3 0.7-0.1 0.4 0.3 0.4 0.7 0.9 0.1 0.4 0.1 5 0.3 1.4 1.6 4.2 0.2 1.4 0.5 1.1 1 1.3 0.8 1.4 0 1.4 0.2 0.6 0.2 0.9 0.2 0.8 0.6 0.4 0.2-0.1 0.3-0.2 0.4-0.1 0.4 0 1 0.9 0.5 0.3 0.6-0.1 1.5-0.6 0.6-0.1 0.9 0.4 0.5 1.7 0.6 0.6-0.2-1.3 0.9 0.5 1.1 1.5 0.4 1.5-1-0.7-0.5-0.3-0.3 0.5 0.1 0.8 0.5 1.6 0.1 0.7-0.1 0.8-0.5 1.7-0.1 0.8 0.4 0.9 1.3 1 0.5 0.7 0.2-0.2 0.4-0.3 0.2-0.2 0.8 0.2 0.5-0.5 0.6-0.4 1 0.7 0.5 1 0 1.1-0.4 1-0.7 0.9-0.2 0.5-0.2 0.7-0.2 0.6-0.5 0.3-0.2 0.3-0.6 1.3-0.7 4.4 0.3 0.9-0.9 1.7-1.4 4-2.6 4.5-0.5 1.6-1 2.4-0.4 0.6-0.7 0.8-1.4 2.9-0.7 1-1.8 1.5-0.4 0.5-0.3 0.4-0.3 0.5-0.1 0.5 0 1.1-0.2 0.3-0.9 0.7-0.4 0.8 0.1 0.6 0.6 1.6 0.4-0.7 0-0.4 0.4 0-0.4 1.9-1.8 3.5 0.3 1.5 1-0.9 0.9-0.6-0.2 0.8-1.3 2.2 0 0.4 0.1 0.8-0.1 0.4-0.3 0.1-0.9 0.1-0.2 0.1-1.5 2-1.9 1.4-1.6 1.8-0.2 0.1-0.2 0.2-0.2 0.3-0.1 0.4 0 0.4 0.1 0.4 0 0.3-0.8 1.2-2.3 1.5-1 1.1-0.3-0.4 1.1-1.5 0.5-1 0.2-1.1 0.5-0.8 2.5-1.7 0.4-0.9 0.2-1.3 0.5-1.1 1.7-1 0.4-1.1-0.3-0.9-1.5-0.2-1.1 0.5-0.5 0.8-0.2 1 0 1-0.4 0.9-0.8 0.5-2.1 0.6-3.1 1.7-0.7 0.2-2 0.3-1.9 0.5-0.7 0.6-0.6 0.6-0.8 0.5-1.6 0.4-0.6 0.4-0.6 0.2-0.4-0.2-0.5-0.2-0.4 0.2-3.7 3.1-0.3 0.6-1.9 2.3-2.6 1.3-0.9 0.7-0.5 1-0.4 1.1-0.4 2.4 0.1 1.3 0.8 2 0.2 1 0.6 0.5 1.3 0.2 1.2 0.3 0.6 1.1-0.3 0.8-2.3 2.7 0.9 0.2 0.5 0.2 0.5 0.3-2.1 1.2-0.9 0.7-0.4 1-0.3 1-0.6 0.9-2.9 2.4-0.4 0.7-0.5 3.5-0.3 1.1-0.5 0.9-2 2.6-0.9-0.2-0.6-0.3-0.5 0.3-0.4 1.4-0.1 2.5 0.6 2.3 1.2 1.9 1.6 1.3 1.4 0.7 0.7 0.8 0.3 1 1.1 5.6 0.4 0.6 0.6 0.6 1.8 2.9 0.3 0.9 0.2 1.5 0.6 1.5 0.9 1.3 0.9 1.3-0.3 0.1-0.5 0.5-0.3 0.1 2.2 2.7 0.4 0.5 0.4 0.5 3.4 2.7 0.6 0.7 0.1 0.6-1 0.3-2 0-1.2 0.3-1 0.4-0.8 0.7-0.4 0.9 0 2.4 0.2 1 1.9 6.6 0.3 2 0.6 2.2 0.4 0.9 0.6 0.9 2.3 2.1 0.5 1 0.1 0.8-0.2 1.9 0.2 0.4 1 0.9 0.2 0.5-0.1 0.9-0.2 0.8-0.5 0.7-0.6 0.5 0 0.4 0.7 0.6 1.9 2.8 3.6 2.6 3.7 3.8 1 0.8 8.2 3.2 7.7 1.7 0.1-1.4-0.6-1.1-2.1-2 1-0.3 4.9 1.3 0.3-0.1 0-0.7-0.2-1 0.2-0.2 0.8-0.2 0-0.3-1.3-0.4-2-2.5-0.9-0.6-1.5-0.5-1.2-1.2-0.8-1.6-0.4-1.6 0.5 0.4 0.2 0.3 0.1 0.5 0.3 0 0-1.3 0.6-0.8 2-1 0.7 0.3 0.1-0.9 0-1.3 0.3-0.8 0.6 0.2 0.2 1.1-0.2 1.3-0.2 0.9 0.4 0.5 0.1 0.6 0 0.7 0.2 0.8-0.1 0.2 0.1 0.3 0.3 0.3 0.3 0 0.2-0.2 0.2-0.3 0.1-0.3 0.3 0.6 0.1 0.7-0.1 1.4 1-0.5 0.9-0.7 0.6-1 0.1-1.2-0.2-0.4-0.7-1.1-0.2-0.4 0.2-0.7 0.4-0.4 0.3 0 0.2 0.7 0.4 0 0.1-0.5-0.1-0.5-0.1-0.3-0.3-0.2 1 0 0.6-0.4 0-0.6-0.7-0.7 0.1-0.5 0.8-1.7 0.4-0.7 0.3 0.8 0.5-0.3 0.5-0.7 0.2-0.9 0.8 0.4 0.7-0.4 0.7-0.6 0.7-0.6 0.7 0 0.6 0.3 1.3 0.9-0.2-0.3-0.6-0.9 1.3-0.1 2.5 1.1 1.4 0.2-0.1 0.8 0.3 0.5 0.5 0.1 0.4-0.6 0.2 0.8 0.5 0.6 0.5 0 0.3-0.7 1.5 0.2 0.7 0.2-0.9-1.4-0.1-1.3 0.4-0.6 1 0.7 0.3-0.5 0.4 1 0.5 0.7 0.8 0.1 0.9-1 0.3 0.4 0.2 0.2 0.4 0.1 0.8 0.1 0.1 0.2-0.1 0.2 0.1 0.3 0.9 1 0.4 0.1 0.8 0.1 1.5 0.3 1.1 0.7 1.6 2 0.1 0.3-0.1 0.4 0 0.3 0.2 0.1 0.7 0.1 0.3 0.1 0.3 0.2 1.2 1.9 0.6 0.5 2 2.2 0.5 0.7 0.5-0.3 0.6 0.2 0.5 0.6 0.3 0.7-0.2 0.8-0.4 0.7-0.3 0.8 0.1 1.1 1.1 1.1 1.4 0.8 0.1 0 0.2 0.8-0.2 2.5 0.4 1.5 0 0.5-0.3 0.5-0.4 0.1-0.4 0.1-0.4 0.4-0.2 0.6-0.4 2.2-0.1 0.6 0.1 2 0.9 1 1.2 0.8 1.1 1.1 0.4 0 1.1-0.6 1.3 0 2.9 0.2 0.5-0.1 1.7-0.7 0.6-0.3 1.8-2.2 0.4-0.6 0.1-0.4 0.2-0.4 0.1-0.3-0.4-0.7-0.6-2-0.9-1.3 0-0.8 1.8-1.3 0.2-0.2 0.4-0.3 0.3-0.7 0.2-0.9 0.1-0.7-0.6 0.5-0.7 1.7-0.4 0.4-0.8 0-0.5-0.1-2.5-1.5-0.6-0.7-0.2-0.9 0.5-0.5 0.9-0.3 0.5-0.4-0.8-0.5 1.1-0.4 0.1-0.7-0.5-1.4 0.5-0.3 1.1 0.4 1.7 0.9 0-0.4-0.2-0.2-0.5-0.6 1.5 0.1 0.4-0.1-0.1-0.4-0.4-0.9 0.3-0.2 0.7 0.3 0.4 0.8 0.5 2-0.9 0.2-0.2 0.6 0.2 0.7 0.4 0.1 0.9-0.9 0.5-0.3 0.6-0.1-0.3 0.4-0.5 1.1 0.6-0.2 0.2-0.1 0.3 0.3-0.2 1 1 1.5-0.4 0.9 0.4 0.5 0.2 0.6 0.1 0.6 0 0.6 0.4 0 0.3-0.7 0.4-0.5 0.4-0.7 0-1.1 1.1 0.3 0.7 0.3 0.4 0.6 0.4 1.1 2.5-0.3 3.9 1.6 3.7 0.6 1.6-2.7 1.2 2.1 1.7 1.8 2.1 1.4 3.8 1.7 0.2 0.2 0 0.2 0.2 0.1 0.7 0.2 1.3 0.1 0.6 0.2 0.3 0.3 0.8 1.6 0.9 0.8 0.2 0.6-0.4 0.8-0.9-0.7-0.3-0.4-0.3-0.4-0.3 0-0.1 0.2-0.3 0.5-0.7-0.3-1-0.3-1.8-0.1-0.4 0.5-0.8 1-1 1-1.1 0.5-1-0.2-1.9-1-2.9-0.5-1.2 0-0.5 0.4-0.5 0.4-1.1-0.4-1.3-0.6-0.8-0.4-0.9 0.4-0.6 0.7-1.7 4.6-0.1 1.1 0.5 0.1 0.2 0.2-0.2 0.3-0.1 0.3 0 0.3 0 0.6 0.1 0.6 0.4 0.1 0.4-0.1 0.5-0.5 1.8 2.3 0.2 0.4 0.4 0.4 3.3 1.7 0.7 0.8 1.4 2.4 0.2 0.2 0.7 0.4 0.2 0.3 0 0.6 0 0.5 0.3 1.5 0.6 1.3 0.9 0.9 0.9 0.3 1 0.5 0.6 1.2 0.8 2.4 0.2-0.9 0.6 0.2 0.6 0.8 0.4 0.7-3.5-0.2-1.2 0.5-0.4 1.4-0.2 0.9-0.2 0.8-0.1 0.7 0.1 0.8 1 1.6-0.2 0.7-1.1 0.3 0 0.5 0.2 0.3 0 0.3-0.2 0.5 1.1 0.6 0.4 0.1 0.7 0 0.5-0.2 0.8-0.7 0.3-0.2 2-2.6 0.3-0.5 0.2-0.5 0.4-0.4 0.6-0.1 0.6 0.1 0.6 0.8 0.5 0.2 0.5 0 0.4 0.2 0.3 0.2 0 0.5 0.4 0.1 1.9 0.5 0.7 0.4 0.8 0.6 0.7 0.7 0.3 0.7 2.4 2.1 0.6 0.4 0.5-0.5 1.1-2.3 0.2-0.8 0.6-0.2 1.2 0.3 1.3 0.5 0.6 0.4 0.2 0.9-0.2 1.1-0.4 0.6-0.7-0.4-0.6 0.8-0.4 0.7-0.5 1.5-0.9 2-0.2 0.5 0.2 0.9 0.7 1.2 0.5 3.5 0.1 1-0.8 6.6-0.3 0.8-1.5 1-0.4 0.8 0.2 0.9 0.2 0.6 0 0.4-0.7 0.6 0.2 0.3 0.5 1.2-0.7 0.2-0.8 0.6-0.7 0.2-0.7 0.1-1.7-0.1-1.4-0.5-1.3-1.2-1.5-2.3 0.1-0.6-0.2-0.1-0.3 0.1-0.5 0.2-0.8-1-1.1-0.5-0.5-0.8-0.4-1.1-1.1-2 0.1-1.1 0.2-1.1 0.1-1.1-0.4-1.4-0.6-0.5-0.9-0.4-1.1-0.7 1.4 0 1-0.5 0.8-0.7 0.5-1.1 0.6 0.3 0.9 0.9 0.4 0.3 0.5 0.2 0.3 0 0.3-0.1 0.5-0.1 0.7-0.1 0.2-0.5 0-0.5 0.2-0.5 0.6-0.3 0.5 0.1 0.6 0.2 0.3 0.1 0.9-0.4 0.8-0.7 0.7-1 0.2-1.1-0.5-1.3-1.1-0.4-2.4 0.4-1-0.1-1.6-0.8-0.9-0.2-0.7 0.5-0.4 1-0.3 1.1-0.3 0.8-1.2 1.4-0.9 0.6-1.3 0.3-0.5 0.3-0.3 0-0.3-0.1-0.5-0.5-0.3-0.1-0.3 0.2-0.6 0.9-0.4 0.4-0.2 0-0.3 0.3-0.2 0-0.3-0.7-0.5-0.8 0.6-0.2 0.5-0.4 0-0.3-0.5-0.2-1.4 0.1-0.3 0.1 0.2 0.4 0.2 0.4 0 0.5-1.1-1 0.5-1.2 0.9-1.2-0.3-0.2-0.4 0.2-0.5 0-0.7 0.2-0.3 0.4-0.1 0.5-0.2 0.4-0.4 0.5 0 0.3-0.2 0-0.7 0-0.9-0.2-0.6-0.2-0.4-0.2-1.4-1.7-0.7-0.6-1-0.5-0.6-0.2-0.4-0.1-0.4-0.2-0.6-0.5-0.8-1.1-1-0.6-1-1.8-0.5-0.4-1.2-0.2-0.9-0.2-0.9 0-1.2 0.4-1.7 1-1.1 0.3-0.5-0.4-0.3-0.9-0.4-1-0.2-0.9 0.5-0.7-0.8-2 1.4-4.3-0.2-2.1-0.9-1-2-1.4-0.8-1-0.2-0.5-0.3-0.8-0.2-0.5-1.5-1.6 0.3-1.5-0.5-1.8-1-1.6-1.2-0.7-1.5-0.4-2.8-1.8-1.6-0.4-0.9-0.2-1.2-0.5-0.8-0.1-0.5-0.2-1.3-1.3-3.4-2.4-0.7-0.3-0.7-0.4-1.6-1.9-0.8-0.7 2.6-2.3-2.6-2.9-1.3-1.1-1.7-0.9 0 0.4-0.3-0.4 0.3-0.3 0.7-0.1-0.2-0.5-0.8-0.6-0.7-0.4-2.1-0.4-0.5-0.3-0.7 0.6-0.6 0-0.7-0.3-0.6-0.7 0.1-0.3 0.4-0.2 0.3-0.4-0.2-0.4-1.7-1.7-0.6-0.4-0.7-0.2-0.7-0.2-0.2-0.3-0.2-0.8-0.3-0.4-0.6 0.3-0.2-0.5-0.7-0.8-0.2-0.3-0.2-0.2-1.1 1.5-3-0.2-1.3-0.4-1-0.9-0.2 0.7 0.4 0.9 0.7 0.7 0.7 0.3 0.2 0.5 2.6 3.7 0.6 1-0.1 0.7-0.3 0.8 0.1 1.2 0.4 2-1.1-0.3-0.3 1 0.3 2.5 0.3 1.4 0.9 1.2 1.9 1.9 3.9 2.4 0.8 0.8-0.2 0.9-1.3-0.6-2.2-1.8 0.3 0.9 1.4 2.2 2.3 2.8 0.6 1 0.5 1.1 0.5 2.2 0.3 2.1 0 2.2 0.1 0.7 0.2 0.4 0.2 0.3 0.2 0.4 0.1 1.1 0 0.7-0.1 0.4-0.3 0.2-0.5 0.2-0.5 0.2-0.2 0.4-0.5 0.5-1.3 0.8-1.3 0.5-0.9 0.2-0.9-0.5-3.6-3.1 0.2-1.1 0.5-1.9 0.1-0.9-1-3.2-5.3-7-0.1-0.4-0.1-0.7-0.2-0.4-1-1-0.3-0.5-1.5-0.6-0.4-0.7-0.8-1-3.3 0 0.1-0.8-1-0.3-1.8-0.1-0.7-0.5-0.3-0.5-0.2-0.9-0.3-0.5-0.4-0.5-2.9-4.7-1.4-1.6-1.7-1.3-0.4 1-0.8-0.2-0.9-0.8-0.7-0.4-1 0.1-0.2-0.1-1.9-1.8-0.7-0.4-0.7-0.2-0.6-0.1-0.5-0.2-1.2-1-0.6-0.4-0.6-0.3-1.7-0.5-0.8-0.8-0.6-1-0.8-0.9-0.4 0-2.1-0.7-0.8-0.4-0.3 0.7-1 0.6-0.2 0.8-0.4 0.3-2.5 0.6-0.3 0.3-0.8 0.9-0.5 0-0.9-0.3-0.3 0.1-0.7 0.5-1.5 0.5-1 0.7-0.4 0.2-0.4 0.1-0.9 0.1-0.2 0-0.6 0.4-1.6 1.8-1.1 1.2 0.4 3.9-0.3 1.4 0.5 0 0.4 0.1 0.6 0.2-1.6 1.7-0.2 0.4-2.2-0.5-0.8-0.1-1 0.6-3.1 2.3-1 1.1-0.8-0.2-0.8-0.5-0.2-0.2-1.5-0.6-0.7-0.2-0.9 0-0.5-0.1-0.5-0.4-0.5-0.2-0.9-0.1-1.8 0.4-0.8 0.4-0.7 0.4-0.6-0.2-1.2-0.2-0.5-0.4-0.2-0.5 0.1-0.2 0.4-0.4 0.1-0.6 0.2-1.3 0.2-1 0-0.9-0.7-2-0.2-0.2-1.1-0.7-0.7-0.3-0.6-0.2-0.6 0.2-4.2 4.8-0.4 0.3-0.4-0.3-0.3-0.6-0.1-0.7 0.3-0.3 0.4-0.3 0.3-0.6 0.2-0.6 0.2-0.3 0.7-0.1 0.4-0.3 0.1-0.4 0-0.8-0.8-0.9-0.2-0.2 0-0.7 0.2-1.1 0.1-0.7 0-0.9-0.2-0.9-0.3-0.8-0.6-0.6-1-0.3-4.8-0.6-2.2-0.6-1.2 0-1 0.4-0.4 0.7 0.2 1 0.7 1.1 0.5 1.2-1.1 0.2-2.2-0.5-0.5 0.8 0.2 1 0.5 1.2 0.2 1-0.3 0.7-0.7-0.5-1.2-1.5-0.4-2-0.1-4.6-0.9-2.1 0.8-0.2 0.7-0.5 0.3-0.6-0.2-0.2-0.6-0.4-0.2-0.8 0.3-3.3-0.2-1.5-0.6-1.1-1.5-0.5 0-0.4 0.9-0.4 0.1-0.5-0.5-0.5-0.8-0.5 0.5 0 0.3-0.1 0.7-0.3 0-0.3-0.8-0.7 0.5-1 0.9-1 0.4-0.9 0.4-0.9 0.8-0.4 2.2-0.4 0.7-0.3 0.9-0.5 0.6-0.6 0.3-0.7 0.3-0.3 1.3-0.6 0.4-0.2 1.2-1.9 4.7-4.6 0.4-0.2 0.6 0 1.2 0 0.4-0.1 0.9-1 1.5-1.1 0.5-0.7 0.2-1.1-0.2-1.3-1.2-1.9-0.4-1.1-0.4-2.3-0.4-0.8-1.5-2.1-0.3-0.7-0.4-0.4-2.5-1-0.2-0.3 0-0.3-0.2-0.4-0.6-0.1-5.2-0.2-3.4-0.5-0.3-0.1-0.4-0.2-0.7-0.3-0.6-0.5-0.2-0.6 0.1-1.9-0.1-1-0.4-0.7 0 1.7 0 0.5-0.1 0.2-0.6 0.6-0.2-0.4-0.2 0-0.3 0.4 0.6-3.7-0.2-0.9-0.9-0.1-0.4 1.1-0.2 2.4-1.1-0.6-0.4 0.7 0 0.6 0 2.2-0.5 3.6 0.1 1.1 2.1 2.4 0.2 0.6-0.2 0.6-0.1 0.9 1 3.9 0.2 2.5-0.5 2.1-1.3 1.5-2.1 0.3-0.5-0.1-0.3-0.2-0.4-0.1-0.6 0-0.2 0.3-0.1 0.4-0.3 0.3-0.7 0.2-0.2-0.2-0.2-0.4-0.2-0.4-2.5-0.7-0.4-0.2-1.1-1.4-0.3-1.5 0.3-3.4-0.2-1.8-0.6-1.1-2.2-1.5-0.6 0.4-0.5 0-0.5-0.2-0.2-0.5-0.4 0-1.7-2.5-0.6-1.7 1-0.8 0.6-0.2-0.4-0.4-1.1-0.7 0.2-0.6 0.4-0.5 0.5-0.4 0.4-0.5 0.3 0 0.3-0.2 0.3-0.4 0.2-0.6-0.9-0.1-0.4-0.1-0.2-0.4 0-0.6-0.2-0.3-0.4 0-0.7 0-0.5-0.4-0.6-0.8-0.5-0.3-0.8 0.7 0.3 1.3-0.2 1.9-0.5 1.9-0.7 1-0.7 0-1-0.2-0.8-0.4-0.4-0.4-0.3-0.6-1.3-0.5-0.6-0.5 0.5-0.2 0.2-0.3 0.2-0.3 0.2-0.4-0.2 0.1-0.9 0.3-1.2-4.2-0.4-2.1 0.4-5-0.2-2.3-1.9-7.9-0.5-0.6-0.3-0.2-0.1-0.5 0.2-1 0-1.3-0.2-0.4-1.1-1.7-0.9-1.8-0.6-0.9-3-3-0.5-1 0.2-0.5 0.8-0.5 0.1-0.3 0-0.6-0.1-0.3-0.2-0.8 1 0.6 1.1-0.2 0.8-0.9 0.4-1.3-0.1-0.4-0.3-0.4-0.3-0.3-0.2-0.2-0.2-0.3-0.1-0.6-0.2-0.6-0.5-0.4 0 0.2-0.3 0.5-1-2.1-0.1-0.7 0.1-0.6 0.7-1.5 0.3-0.8-0.2-1.6-0.9-0.8-1.1-0.7-0.8-1.4 1.2-0.3 0.3-0.9-0.4-2.3 0.2-1 0.3-0.8 0.1-0.9-0.2-1.1-0.9-2.3-0.6-1.1-0.7-0.8-1.4-0.4-0.8 0.8-0.7 0.9-0.8-0.2-0.2 0.3-0.6 0.5-0.8-1.6 0.1-6.4 0.2-1 0.8-2.3 0.1-1.1-0.1-0.5-0.8-0.9-0.2-0.6-0.1-1.7 0.1-0.7 1-3.6 0.3-2.3 0.5-1.1 0.6-0.9 0.6-0.6 0.2 0 0.6 0.1 0.3-0.1 0.9-0.6 0.2-0.1 0.9-0.3 1.1-0.1 1.3 0.4 0.6 0.9 0 1.1-1.3 5.3 0.7 0.4 2.4 0.6 0.5 0.3 0.4 0.5 1.5 1.6 0.5 0.4 1.2 0 0.7 0.1 0.6 0.4 1 1 0.4-0.1 0.2 0.2 0.5 3.6 0.3 1.1 0.7 0.8 1.1 0.5 2.5 0.7 1.2 0 1.2-0.2 0.9-0.6 0.5-0.2 1.9-0.2 0.8 0.6-0.4 1.5 0.6-0.5 0.6-1.2 0.6-0.6 0.4 0.2 0.6 0.1 0.6-0.1 0.2-0.6-0.3-0.4-0.7 0.1-0.7 0.3-0.5 0 0.2-0.8 1.9-1.6 0.5-0.8 0.2-0.6 1.1-1.1 0.2-0.7 0-2.2-0.3-1.3-0.6-1.3-1.7-2.2 0 1.1-0.3-0.4-0.3-0.4-0.3-0.3-1.3-9.2-0.7-2.1 0.4-2.9-0.5-1.3-0.7-1.4-0.5-1 0.5-0.5 0 0.2 0.2 0.1 0.4 0.1 0.6 0 0-0.4-0.3-0.7 0.1-1.2 0.2-1.3 1-2-0.1-1.1-0.4-1.3-0.2-1.2 0-1.2 0.2-0.6 0.2-0.5 0.3-0.7 0.4-0.3 0.4-0.3 0.5-0.5 4.1-6.2 0.4-1.2 0.1-1.4-1-9.6-0.2-0.3-0.5-0.8-0.1-0.4 0-0.9 0.5-2.4-0.2-3.3 0.2-0.3 1-1.1 0.4-0.6 0.2-0.5 0.1-0.5 0-0.7-0.4-1.9-1.8-4.2 0-1.2-2.4-0.6-0.9-0.5-0.4-1 1.1-6.8 0.5-0.5 1.2-0.2 0.9-0.4 0.5-0.9 0.3-1 0-0.8-0.5-0.8-0.6-0.7-0.3-0.6 0.4-0.8 1.3-1.5 0.3-0.8 0.1-1.3-0.3-2.4 0.2-0.8 1.2-1.8 1.2-2.4 0.2-0.7 0.1-1-0.1-1.2-0.2-1.2-0.3-0.7 0.1-0.8 3-6.4-0.1 0.1-0.2-0.2-0.1-0.3 0-0.3 0.2-0.2 0.2 0 0.2-0.2 0.1-0.2 0.3-0.7 1.6-3 0.7-1.8 0.4-2.2-0.1-2.4-0.6-2.1-0.6-1.5-0.1-0.9 0.5-0.9 1.1-1.1 1.1-1 0.9-0.1 2.2 0.5 1.2-0.1 2.4-0.9 1-0.2 0.9-0.5 0.2-1.1 0-1.3 0.2-1 0.7-0.8 1.1-0.5 1.2 0 0.8 0.4 0.9 1 1.3 2.3 1 0.7 0.9 0.1 1.1-0.4 0.9-0.5 0.4-0.5 0.4-0.5 2.1-1 0.8-0.3 0.5 0 1.1 0.1 0.6-0.1 0.5-0.3 0.6-0.5 0.7-0.4 0.6 0.3 0.4 0.2 0.6 0.2 1.2 0.1 0.6 0.2 0.4 0.4 0.2 0.6 0.4 0.4 2.7 1.3 1.4 1.3 5.3 2.7 0.7 0.7 0.8 0.5 1.7 0.5 4 2.7 0.4 0.2 0.7 0 0.4 0.2 0.3 0.4 0.3 0.5 0.4 0.4 2.5 0.8 1.1 1.5 0.9 1.5 1.1 1 0-0.3-0.8-0.8 0-1.2 0.5-0.8 0.8 0.2 0.7 0.6 9.7 3.8 2.3 0.5 1.1 0 3.1-0.4 0.7-0.3 2.8-1.6 2.1-3.4 0.7-0.5 1-0.2 0.5-0.6 0.1-1.9 1.3-4 0.4-0.7 2.4-0.2 1.2 0 0.8 0.4 0.4 0.9 0.2 2.3 0.3 0.9 0.4 0.6 1.5 1.3 0.5 0.3z m-109.7 721.4l0.1 0.8-0.8 3.3-0.3 2.1-0.3 1.2-0.6 0.7-0.7-0.2-0.6-0.4-0.4-0.5-0.1-0.9 0.4-1.6 0-0.8-0.4-0.4-0.3 0.1-0.2 0.4-0.1 0.4-0.1 0.3-0.3 0-1 0-0.4-0.3-0.4-0.5-0.3-0.6-0.2-0.5-0.5 0.8-0.2 1.7-0.4 0.8-0.8 0.3-0.8-0.2-0.7-0.3-0.6-0.2-1.1 0.2-0.4 0.4-0.2 0.6-0.5 0.7-0.4 0.1-0.5 0-0.4 0-0.2 0.4-0.4 1.7-0.8 0.7-0.6-0.2-0.5-0.4-0.6-0.1-0.5 0.3-0.7 1-0.5 0.2-1.7 0-0.7 0.3-0.4 0.3-0.5 0-0.6-0.6-0.1-0.7 0.1-1.8-0.3-0.9 0.5-0.4 0.4-0.2 1.9-0.7 1.6-0.8 0.4-0.3 0.3-0.1 1.9-1.1 0.7-1.3 0.4-0.5 1.7-0.2 1.3-0.5 0.5-0.1 0.4-0.2 0.9-0.9 0.5-0.1 0.4 0.2 0.4 0.1 0.5-0.2 0.1-0.3 0.2-1 0.3-0.4 1.4-0.8 0.5-0.7 0.7-0.3 1.2-0.5 1-0.7 0.6-0.2 0.5 0.1 0.3 0.4 0.1 0.6 0 2.8 0.2 0.4 0.4 0.1 0.5-0.2 0.4-0.1 0.4 0.4z m18.1-60.1l0.4 0.3 0.2 0.4 0.2 0.6 0.1 0.4-0.1 1.1-1.1 3.7-0.3 0.5-0.4 0.4-0.6 0.3-0.7 0-2.1-0.3-0.6-0.3-0.4-0.6 0.2-0.4 0.5-0.2 0.7 0 0.4-0.3 0.4-0.6 0.4-0.7 0.1-0.5 0.2-0.4 0.8-1.2 0.3-1.2 0.4-0.5 0.5-0.4 0.5-0.1z m91.6-13.6l1.7 1.1 0.3 0.5-0.7 0.8-1.1 0.4-2.5 0-1 0.6-0.6 0.7-0.5 0.7-0.4 0.8-0.2 0.9-0.3 2.4-0.5 0.9-1.2 0.4-1.2 0.1-1.2 0.2-3.5 1.3-1 0.2-2.3 0-1.8 0.3-0.2-0.1-0.1-1.1-0.1-0.5-0.2-0.4-3.8-3.2 0-2.8-0.2-1-1.1-0.5-1.2-0.1-1-0.4-0.4-1.4 0.2-1.4 0.6-0.9 0.9-0.4 5.5-0.5 0.4-0.2 0.5-0.7 2.1-1 0.9-0.9 0.5-0.4 0.9-0.1 1.4-0.1 0.5 0.1 0.5 0.2 0.7 0.7 0.4 0.4 0.6 0.2 1.3 0.3 0.7 0.1 0.1 0.2 0.3 0.5 0.4 0.5 0.6 0.2 2.4 0.4 0.6 0.2 0.3 0.3 0.3 0.3 0.3 0.3 0.5 0.2 1.4 0.5 0.5 0.2z m-201.6-20.1l-0.9-0.4 0 0.5 0.6 1.3-0.7 0.5-0.8-0.1-1.4-0.4-1.7-0.1-0.5-0.4-0.4-0.9-0.1-0.7 0.2-0.5 0.6-0.4 0.8-0.3 1 0.2 0.6-0.1 0.6-0.3 0.7-0.1 0.7 0.1 0.5 0.5 0.6 1.2-0.4 0.4z m-77.8-56.9l-0.3 1.1 0 0.4 0.1 0.3 0.5 0.7-0.2 0.4-0.6 0.3-0.3 0.3 0.1 0.8 0.6 2 0.1 1.1-0.1 0.3-0.2 0.5-0.1 0.1 0 1.1 0.4 0.4 0 0.2-0.2 0.1-0.1 0.1-0.4 0.4-0.1 0.1-0.2 0.6-0.6 0.7-0.8 0.6-0.9 0.2 0.5 0.9-0.4 0.3-0.9-0.1-0.7-0.4 0.3-0.8-0.3-0.9-1.1-1.7-1.1-2.7 0-0.3 0.3-7.3 0.6 0.4 0.2 0.5 0 0.6 0.3 0.3 0.8 0 0.3-0.6 0.2-0.8 0.4-0.4 2.4-0.5 1 0.1 0.5 0.6z m-3-0.6l-0.5-0.5-0.3-0.5-0.3-0.5-0.7-0.4 1.7-1.3 0.9-0.4 0.7 0.6 0.6 1.7-0.1 0.4-0.4 0.2-0.5 0.1-0.6 0.1-0.5 0.5z m7.4-5.9l1.2 0.1 0.8 0.5 0 0.6-1.1 0.3-1.2-0.4-0.5-0.7 0.1-0.5 0.7 0.1z m8.4-7.9l1.6 1.1 0 1.6-0.3 1.6 0.6 1.4-0.5 0.6-0.4 0.5-0.6 0.3-0.7-0.4-1.6 0.8-0.6-1.2-0.1-1.9-0.3-1.4 0.3-0.7 0.2-1.6 0.2-0.7 0.5 0.3 0.5 0 0.4-0.2 0.5-0.4 0 0.2 0 0.1 0.2 0 0.1 0z m-4.4 0.5l0.6-0.4 0.4 0 0.2 0.4-0.1 0.7-1.1 1-1.5 1-1.3 0.1-0.5-1.4 0.5-0.6 2.8-2.4-0.1 0.7-0.1 0.2-0.1 0.2 0.3 0.5z m404.3-48l0.5 0.4 0.5 0.9 0.3 1-0.4 1.5 0.1 0.9-0.1 0.9-0.7 0.7-0.4 0.2-0.5 0.1-0.4-0.1-0.3-0.7-0.4-0.1-0.5 0-0.4-0.1-3.3-1.6-1.3-1.3-0.6-1.8 0.6-2 1.4-1.2 1.9-0.5 2 0.6 0.9 1.4 0.5 0.5 0.6 0.3z m-58.2 1.9l0.2 0 0.7 0.4 0.4 0.4-0.4 0.2-0.6 0.9-0.3 0.3-0.5 0.1-1.5-0.1-0.4 0-0.3 0.2-0.2 0.3 0 0.4-0.2 0.5-0.4 0-0.9-0.3-1.1 0-0.9-0.2-0.9-0.4-4.4-3.1-0.5-0.8 0.2-0.6 1.4-1.2 0.9 0.5 1.3-0.2 1.3-0.7 1.6-1.3 0.4-0.3 0.2-0.3 0.1-0.9 0.3-0.6 0.7-0.2 0.8 0 0.7 0.2 0.5 0.8 0.8 1.6 0.4 0.3 0.9 0.4-0.2 0.7-0.5 0.7-0.4 0.4 0 0.6 0.2 0.4 0.6 0.9z m132.3-36.1l0.4 0.6 0.4 0.9-0.1 0.7-1.3 0.5-0.9 0.7-0.4 0.3-0.6 0.1-1.4-0.1-2.1-0.8-0.7 0 0.4 1.1-0.8-0.6-0.8-0.9-1.3-1.8 0-0.3 0.1-0.2 0-0.3-0.1-0.3-0.3-0.2-0.5 0-0.4-0.1-0.3-0.5 0.7 0.1 0.7-0.1 0.7-0.2 0.5-0.6-0.6-0.2-0.8-0.5-0.5-0.5 0.2-0.8 3.3-5.3 0.2-0.5 0-0.5-0.1-0.5-0.1-0.5 0.4-0.5 1-0.8 0.5 0.2 2.5 5.5 0.6 2.9 0 0.6-0.3 0.6-0.8 0.7-0.4 0.5 1.1 0.2 0.7 0.2 0.5 0.5 0.7 0.7z m-85.8-2.3l-0.8 0.5 1 1.1 2.9 2.1-1.3 2.9-0.2 0.7-0.5 0.2-1.4 0-1.3-0.2-0.8-0.2-0.2-0.5 0-0.5-0.1-0.5-0.8 0-0.4 0.3-1.6 1.7-0.5 0.3-0.7 0.2-0.6 0.4-0.2 0.6-0.1 0.8-0.1 0.5-0.2 0.6-0.4 0.5-1.5 1.2-2.4 1-2.3 0.7-1.9 0.1-2-0.1-8.4 0.6-6.9-1.2-2.4-0.8-1.1-0.7-0.5-0.9 0.2-1.2 0.4-1.1 0-1-0.6-0.7-0.9-0.1-1.1 0-0.9-0.2-0.4-1 0.1-1.2 0.3-1.2 1.1-2.2 0.7-0.8 1.8-1.6 0.4-0.8 0.2-0.7 0.4-0.1 0.7 0.3 0.5-0.2 0.3-0.4 0.2-0.5 0.3-0.4 1.7-0.7 2.5-0.5 2.2-1 1-1.8 0-1.1 0.3-0.9 0.6-0.5 1.6-0.4 0-0.4-0.1-0.4 0.1-0.5 0.4-0.4 0.7-0.5 0.4-0.2 0.8-1.2 0.4-0.3 1-0.4 2-0.4 2.2 0 3.6-0.5 1 0.5 0.4 2.3 0.6-0.5 0.8-1.4 0.8-0.4 0.1 0.7 0.5 1 0.5 0.7 0.7-0.1 2.4 2.1 0.7 0.5 1.7-0.1 0.5 0.2 1 0.6 1.5 0.8 0.6 0.6-0.2 1.3 0 1-0.2 0.5-0.6-0.9-0.2 1.1 0 0.8-0.1 0.5-0.4 1 0.8 0.7 0.7 1 0 0.9-1 0.4z m61.9-2.2l0.1 0.9-0.4 0.7-0.8 0.4-1.1-0.2-0.8-0.6-0.2-0.8 0.1-0.9-0.2-1-0.5-0.5-1.5-0.4-0.6-0.6 0.5 0 0.2 0-0.4-0.3-0.2-0.3 0-0.3 0.3-0.3 0-0.3-1.3 0-0.5-0.9 0.1-1.3 0.6-1.2 0.2 0.5 0.4 0.2 0.3-0.2 0.2-0.7-0.2-0.2-0.7-0.9-0.2-0.5-0.4 0-0.3 0.6-0.3 0.1-0.5-0.2-0.5-0.2-0.4 0.3-0.4 0.5-0.5 0.4-0.8 0-0.4-0.6 0-0.8-0.1-0.6-0.8-0.3-0.1-0.3 0.1-1.4-0.1-0.5 0.8-0.4 0.4-1 0.1-1.1-0.2-0.9 0.4-0.2 0.4 0 0.3 0.2 0.3 0.4-0.1-0.9-0.4-0.7-0.1-0.7 0.6-0.7-0.2-0.1-0.1-0.2-0.1-0.2-0.3-0.3 0.2-0.8-0.4-1-0.1-0.8 1.2-0.3 0.7-0.1 0.2-0.4 0-1.2-0.1-0.4-0.2-0.3 0-0.2 0.3-0.5 0.3-0.1 0.4 0 0.3 0.1 0.3 0.6 0.5 0.2 0.4-0.1 0.4-0.2 0.3-0.6 0.1-2.1 0.4-1.3 0.2-0.6 0.5-0.3 0.6-0.1 0.4 0.3 0.8 1.3 0.7 1.8 0 1.9-1.1 3.7-0.1 1.4-0.2 0.5-0.2-0.1-0.5-0.1-0.4 0.2 0 0.7 0.4 0.5 0.8 0.6 0.4 0.8-0.5 0.8 0.3 0.4-0.6 0.3 0.2 0.6 0.6 0.3 0.9-0.1-0.4 1.5 0 0.9 0.3 0.8 0.8 1 0.4 0.7 0.1 0.7-0.2 0.7-0.4 0.8-0.4 0.8-0.3 0.3 0.1 0.4 0.4 2.2-0.6 0.8 0.5 0.9 0.9 0.9 0.7 0.8z m-309.3-37.7l1.2 0.4 1.4 0.8 0.6 0.9-1.1 0.5 0 0.3 0.2 0.5-0.5 0.5-0.9 0.2-0.9-0.4-0.1 0.3-0.1 0.3-0.1 0.2-0.1 0.3-1.3-1.8-0.6-0.4 0.2 1 0.3 1.1 0.2 1.1-0.3 0.9-0.5 0.1-0.6-0.1-0.5 0-0.3 0.5-0.2 0.3-0.4 0.2-1 0.1-0.8 0.2-0.7 0.4-0.8 0.2-1-0.6-0.4-0.9-0.2-1.1 0-2.3-0.6 0.2-0.5-0.1-0.2-0.3 0.1-0.2 2.2-1.7 0.5-0.6 1.3-2.3 0.4-0.6 0.3-0.2 0.4-0.2 0.5 0.1 1.7 1 1.5 0.7 1.7 0.5z m148-7.2l1.4 2.2 0 3-0.9 3-1.8 4.3-1.2 1.9-1.6 1.5-2.1 0.6 0.5-1.5-0.6 0-0.9 0.7-0.3 0.4-0.3 0.2-1 0.7-0.6 0.2-0.3-0.2-0.2-0.5-0.4-1.1 0-0.3 0-0.6 0-0.3-0.3-0.1-0.6-0.2-0.2 0-0.2-0.2-0.5-0.5-0.2-0.6 0.7-0.2 0.6 0 0.6-0.1 0.3-0.2 0.2-0.7 0.1-0.4 0.9-0.4 0.4-0.5-1-0.2-0.4-0.9 0.1-1.2 0.4-0.8 0.6-0.8 0.9-1.7 0.6-0.7 0.8-0.5 1-0.2 0.8-0.3 0.5-2.1 0.6-0.8 0.8-0.6 0.6-0.8 1.6 1.2 0.6 0.3z m46.3-5.2l0 0.3-0.2 2.5-0.5 1-1.5 2.2-0.9 2.1-1.7 7.2-0.6 1.3-4.5 4.8-0.6 0.9-0.7 1.6-1.1 2.4-0.2 1.2-0.1 3.6-0.2 1.1-1.7 3.3-0.2 1.3-0.1 1.3-0.1 1.1-0.4 1-2.4 3.6-0.5 1.4-0.4 0.3-0.4 0.4-0.1 0.2-0.8 2.5-1.5 1.7-0.7 0.9-0.3 1.3 0.7 9.3-0.3 1.3-0.1 0.6-0.1 0.7-0.4 0.1-0.5-0.2-0.4 0.3-0.1 1.4 2.3 1.6-0.4 1.4-0.5-1.1-0.9 0.6-0.5 1.1 1 0.6 1.5 0.2 0.5 0.6 0 0.9 0.4 1.3 0.7 0.7 1.1 0.8 1.1 0.8 0.8 2.5 0.9 1 1.1 0.9 0.9 1.1 0.4 2.2-0.6 2.5-1 2.2-3 4.3-0.2 0.9-0.5 0.7-3.7 2.3-0.7 0.2-1.9 0-0.7 0.1-1 0.5-1.2 0.2-0.8 0.5-0.6 0.1-2.2-0.7-1.8-1.8-1.3-2.2-2.2-5.4-0.3-3.6-0.3-1-0.6-0.9-1.3-1.3-1-0.7-0.9-0.2-3.5-0.2-1.1-0.2-2.4-1.3-0.7-0.2-0.5-0.2-0.4-0.4-0.4-0.6-0.3-0.3-0.7-0.2-0.7 0-0.6-0.2-0.1-0.3-0.4-0.7-1.1-1.3-1-0.8-1.1-2.6-0.8-0.6-0.6-0.2-0.4-0.5-1.6-3.4-0.5-0.7 0.4-0.5-0.2-0.5-1-0.9-0.2 0.2-0.6 0.3-0.3 0.2 0.1-0.7 0.4-1.4-0.1-0.9-0.3 0.2-0.8 0.4-0.4 0.2 0.1-2.1 0.3-2 0-1.8-0.8-1.5 0-0.4 0.6-0.6 2.1-3.7 0.9-2.4 0.7-0.4 1.1-0.2 2.3-0.5 1.2-0.1 3.5 0.7 0.9 0.5 0.8-0.5 2.7-0.6 1.1-0.6 2.9-3 1.3-0.9 1.1 0.6 1-0.5 1.4-1.8 0.4-1-0.2-1.3-0.7-2.3-0.4-2.4 0.8-6.6-0.6-2.4-2-4.3-0.4-2.3 0.5-1 1-0.4 1-0.3 0.5-0.3 0.3-0.6 1.9-1.9 1.2-2.8 0.1-0.5 2-3.4 0.2-1.2-0.2-3.5-0.2-0.3-0.8-0.5-0.2-0.3 0.1-1.2 0.1-0.4 0.2-0.5 0.5-0.6 1.4-1.7 0.5-0.3 2.4-0.1 1.1-0.2 1.1-0.4 4.4-2.8 2.3-1.1 2.5 0.1 0.1 0.2 0.2 0.4 0.2 0.4 0.4 0.1 1 0 0.3 0 0.6 0.4 0.9 0.9 0.7 0.3 0.6-0.1 1.4-0.6 0.6-0.1 0.7 0.4-0.1 0.4-0.4 0.5 0.1 0.6 0.5 0.3 0.4-0.2 0.4-0.5 0.6-0.4 0.8-0.1 0.6 0.1 0.5 0.2 1.9 0.5 1 0.4 0.8 0.8 0.3 2.2 0.3 0.5 0.7 1 0.2 0.1 0.2 0 0.2 0.1 0.2 0.2z m25.3-0.2l-0.2 1.3-0.9 2.2-0.3 1.2 0.2 2.2 1.4 4.4 0.2 2-0.1 0-0.4 0.2-0.4 0.3-0.2 0.2 0 0.3 0.3 0.2 0.1 0.3-0.1 4.3-0.2 0.9-1.4 3.5 0 0.4 0.5 0.8-0.2 0.5-1.2 0.8-0.1-0.6-0.3-0.4-0.3-0.1-0.4 0.4-0.1 0.4 0.1 2-0.6 0.2-2.9 1.5-0.9 0.7-1.2 1.8-0.6 0.4-1.3 0.1-1.3 0.2-0.8 0.5-1.1 1.5-2.9 2.3-0.4 0.9-0.1 1.1-0.2 0.8-0.5 0.6-0.7 0.6-0.4 0.3-0.7 0.2-0.3 0.3-0.2 0.3-0.3 0.4-0.2 0.5 0 0.4 0 4.3-0.7 2.9-0.1 1.1-0.2 0.4-0.5 0.3-0.5 0.2-0.3 0.2-4.9 11.6-0.3 2.1-0.9 2.6-0.4 1-0.5 0.5-0.9 0.6-0.5 0.4-0.5 0.6-0.7 1.2-2.8 3.4-0.6 0.5-0.9 0.5-0.8 0-0.3-1.2-0.4-3.1 0-1.2 2.7-15.1 2.2-5 0.2-1.1 0.1-1.3-0.2-0.3-1.1-0.5-0.2-0.3 0.2-1.7 0.2-0.4 0.4-0.2 0.3 0.2 0.2 0.3 0.2 0.1 0.2-0.4 0.1-0.5 0-1.2 0.3-1.4 0.7-0.9 2-1.6 1.9-2.1 0.7-1.2 0.7-2.5 2.5-3.5 0.9-3.4 0.4-0.9 1-0.9 4.5-6.1 0.2-0.9 0.1-0.2 0.3-0.3 0.2-0.4 0.2-0.5-0.4-1.8 0-0.7 0.6-1.1 1.3-1.6 0.6-2.2 0.7-1.2 0.8-1.2 2-2.3 1-1.5 3.6-10.2 1-1.7-0.3-1.2-0.6-1.9 0.3-1 0.6-0.7 0.5-0.8 0-1.3 0.4 0 0.2 0.4 0.2 0.3 0.7 0.4-0.6-2.9-0.3-0.6-0.2-0.8 0.4-1.1 0.6-1 2.6-3.5 1.4-1 1.6 0.4-0.1 0.4-0.3 1.6-0.6 1.5-0.3 1.1-0.2 2-0.3 1-1.6 2-0.6 0.9 0.5 0.2 0.2 0.4 0 0.4 0.2 0.2 1.1-0.1 0.5-0.1 0.4-0.2-0.1 1.1 0.5 3.2-0.1 1.2-0.4 1.7 0.1 1 0.7 1.3 0.1 0.6-0.2 0.5-0.8 1.3-0.2 0.6z m-13.2-18.9l0.6 0.8 0.3 0.6-0.1 0.3-3.5 0.4-0.2 0.2-0.7-0.9-1.3-3.5-0.2-1.2 0.2-0.7 0.3-0.6 1-1.1 0.7-0.4 0.4 0.1 0.4 0.6 1.5 4.4 0.6 1z m-221.4 34.3l2.3 1 0.6 0.8-0.8 1.3-0.4 0.2-1.3 0.3-0.5 0.3-1.1 1.7-0.5 0.2-2.5 2.2-0.9 1.3-0.7 0.4-1.1 0.2-2.2 0-0.7-0.1-0.8-0.3-0.6-0.1-0.7 0.3-1.6 1-1.1 0.3-1.1 0.3-1.2 0.8-3.7 3.7-1.6 2.2-1.1 2.3-0.8 5.2-1.4 1.5-1.9 0.8-2.5 0.7-0.6 0.2-1.1 0.7-0.5 0.2-0.6 0.1-1.3-0.1-0.7 0-0.5 0.3-1 0.6-0.6 0.2-0.6 0.2-1.2 0.2-2.6 0.1-1.5 0.4-1.4 0.7-1.6 1.1-1.2-0.4-1.2 0.6-0.9 1.2-0.4 1.4 0.3 1.7 1.1 2.3 0.5 1.4-0.4 2.9-0.7 0.3-0.8-0.2-0.8-0.6-0.3-0.8 0.3-0.9-0.3-0.3-0.9-0.1-0.6 0.4 0 0.8 0.2 1-0.2 0.8 0.6 0.3 0.4 0.4 0.1 0.6-0.3 0.6 1.4-0.2 0.9 0.7-0.1 0.8-1.5 0.2 0.1 0.8-0.3 1-0.5 1-0.6 0.7-0.2 0.5-0.1 0.4-0.2 0.3-1.1 0.2-0.3 0.3-4.1 6.7-1.9 1.9-0.3 0.5-0.2 1-0.6 1-2.1 2.8-0.3 0.2-2 1.4-0.5 0.1-0.8 0.5-2.7 2.9-0.8 1.4-0.6 0.6-1 0.2-2.2 0-0.5 0.1-1.3 0.8-0.6 0.2-3.3 0.1-0.9 0.5-0.4 0.3-1.4 0.6-0.3 0.2-0.3 1.7-0.7 1.5-0.1 0.2 0.1 0.6 0 0.3-0.2 0-0.4 0-0.4 0.1-0.1 0.4-0.2 1-0.5 1.3-1.2 2.4-2.4 3.5-0.7 0.6-4.8 2.6-3.8 3-3.5 3.8-1 0.7-1.2 0.3-1.2 0.1-0.7 0.3-0.6 0.4-1 0.3-1.1 0.1-3.1-0.4-1.3 0.5-0.4 1.2 0 2.3-0.4 1.1-1.5 2-0.3 1.2-0.2 0.6-0.5 0.3-0.5 0.1-0.3-0.3-0.2-0.5-0.7 0-5 1.5-1.8 0.8-1.4 1.1-0.2 0.3-0.4 0.9-0.2 0.2-1.8 0.6-0.4 0.9-0.7 0.8-1.5 1-1.3 1.6-0.4-0.2-0.1-1.5 0.1-0.7 0.5-1 0.3-1.2 0.3-0.4 0.4-0.4 0.2-0.2 0.1-0.5-0.1-1.2 0-0.8 0-0.6 0-0.3 0.2-0.2 0.5-0.4 0.2-1.3 0.5-1 1.2-1.9-0.1-0.1-0.3-1 0.9 0.2 0.4-0.8 0.2-1.1 0.5-0.6 0.6-0.2 0.8-0.7 0.8-0.9 0.6-0.7-0.7 0 1.1-1.8 0.9-0.8 2.2-0.7 0.9-0.8 0.8-0.9 3.8-5.9 1.3-1.4 4.2-3.6 0.9-1.6 0.4-1.2 0.4-0.8 0.7-0.5 1.3-0.1 0.7-0.6 0.4-0.1 0.2 0.5 0.2 0.3 0.5 0.1 0.6-0.1 0.5-0.1 0.6-0.5 0.4-0.5 0.6-1.8 0.1-0.1 0.3-0.3 0.2-0.4-0.1-0.4-0.3-0.5 0.7-0.6 2.2-1.4 0.7-0.3 0.9-0.5 1.2-2.6 0.8-0.6 2.2 0.3 1.1-0.1 1.2-0.5 0 0.6 0.1 0.5 0.2 0.5 0.5 0.3 0.7-0.6 0.5-0.6 1-1.5 0.5-0.5 3.9-2.5 0.4-0.3 0.1-0.5-0.3-1.1 0.2-0.7 0.8-0.6 1.2-0.6 1.2-0.8 1.2-3 3.3-2.3 1.1-1.9 1.5-1.3 0.3-0.4 0.2-0.3 0.2-0.3 0.3-0.4 0.1-0.5-0.1-1.2 0.2-0.6 0.6-0.7 0.6 0.3 0.6-0.2 1-0.8 0.4-0.2 0.4-0.1 0.2-0.2 0.3-0.9 0.2-0.1 0.4-0.1 0.3-0.3 0.5-0.5 4.3-3.2 0.3-0.5 0.6-1.5 2.5-2.5 0.6-0.9 0.1-0.6 0.3-0.8 0.4-0.9 1.9-2.6 0.6-0.5-0.6-1.2 0.9-0.9 2.6-1.3 0.4-0.5 1.9-4.1 0.4-0.6 0.2 1.8 0 0.8-0.4 0.4-0.3 0.4 0.9 0.7 1.2 0.4 0.5-0.6 0.2-0.4 0.3-0.4 0.4-0.3 0.2-0.2 0.3-0.6 0.1-0.3-0.1-0.1-1.1-1.9-0.2-0.8-0.1-1.1 0.2-0.9 0.4-0.3 1.1 0.1 0.7-0.2 1-0.8 0.9-0.2 1.4 0.3 0.9-0.1 0.8-0.5 0.5-0.9 0.1-0.9-0.2-0.9-0.4-0.7 0.4-0.2 0.1-0.1 0.2 0.1 0.4 0.2 0.5-0.6 0.8-0.4 0.8-0.3 0.8-0.2-0.1-0.9 0.4-0.7 0.2-0.6-0.8-0.4-0.5 0.2-0.7 0.4-0.6 0.1-0.4-0.7 0.1-0.6 0.6-0.8 0.6-0.8 0.5-0.4 0.9-0.1 0.9 0.1 0.8 0.4 0.7 0.3 0.4-0.7 0-0.6 0.2-0.4 1.2-0.1-0.3-0.7-0.5-0.4-0.3-0.4 0-0.8 0.3-0.3 1.1-0.4 0.5-0.4-0.1 0.6-0.1 0.2-0.2 0.3 0.3 0.7 0.4 3.2 0.5 0.4 0.9-0.5 1.6-1.5 0.5-1.2 0.2-0.3 0.4-0.2 0.5-0.2 0.4-0.2 0.6-1.2 1.8-0.5 0.7-0.7-0.5-0.6-0.7-0.7-0.4-0.6 0.2-0.7 1 0.4 1.1-0.5 1-0.9 0.5-0.9 1.4-7.3-0.1-0.7-0.7-0.8-0.2-0.3-0.2-0.5-0.3-0.4-0.4-0.1-0.4 0.1-0.5 0.6-0.4 0-0.6-0.5-0.2-0.7 0.1-1.6-0.3-0.7-0.7-0.6-0.8-0.4-0.8-0.3 1.6-2 0.2-0.2-0.4-0.6-0.7-0.4-0.4-0.4 0.4-0.9-0.8-0.5 0.6-0.5 0.8 0.1 0.2 1.3 0.3 0 0.1-0.2 0.3-0.6 0.2 0.5 0.3 0.2 0.3 0 0.3-0.3 0.4 0-0.2 0.7-0.2 0.1-0.4 0.3 0.8 1.5-1.1 0 0.3 0.6 0.6 0.2 0.6-0.1 0.7-0.3-0.4 1.1 0.2 0.6 0.6 0.4 0.7 0.9 0.3 0 0-0.4 0.4 0 0.3 1.1 0.9 0.5 0.9 0.4 0.5 0.8 0.2 0.6 0.3 0.3 0.4 0.1 0.4-0.5 0.4 0.4 0.3 0.6 0.4 0.6 0.1 0.4 0.2 0.3 0.6 0 0.6-0.3 0.1-0.4-0.2-0.5-0.3-0.5-0.8-1.7-0.3-0.3 0.2-0.8 0.5-0.8 0.2-0.3-0.4-0.6-0.8-0.6-0.9-0.5-0.7-0.2-0.9 0-0.9-0.1-0.8-0.6-0.5-1.1 0.1-0.5 0.6-1.1 0.1-0.3-0.5-0.1-0.8 0.1-0.7 0-0.3-0.6 0.1-3.1 0.3-0.8 0-0.4 0.4 0 0.1 0.6 0.3 0.4 0.4 0.2 0.7 0-0.5-1.3-1.3-2.2-0.1-1.4 0.5-0.7 0.7 0.8 0.8 1.1 0.7 0.7 0.6 0.1 0.5 0.2 0.5 0 0.5-0.3 0.2-0.7 0-1.5 0.7-1.4-0.3-0.7-0.5-0.3-0.1 0.1-0.9-1.2-0.4-0.6-0.2-0.9 0.7 0.1 0.7-0.6 0.5-0.9 0.3-0.8 0-1.2-0.4-2.6 0.2-0.9 0.3-0.3 0.2-0.2 0-0.3 0.1-0.3 0.1-0.2 0.4 0 0.2 0.1 0 0.3 0.9-0.9 0.4-0.6 0.2-0.6 0.2-1.5 0.2-0.8 0.3-0.6 0.6-0.1 0.4 0.6 0.2 0.8 0.1 0.7 0 0.9 0.1 0.4 0.1 0.6 0.3 0.6 0.3 0.5 0.5 0.3 0.2-0.2 0.3-0.2 0.2-0.3 0.8 2 0.1 2.1-0.4 2.3-0.8 2.2-1.4 2.3-0.2 1.1 0.7 1.3 1.3 1.2 0.4 0.7 0.6 2.4-0.1 0.4-0.6 0.4-1.1-0.7-0.8-0.2-0.3 0.3-0.6 1.5-0.1 0.7 0 0.7 0.3 1.2 0 0.6 0 0.5-0.3 1.1 0 0.6 0.1 0.6 0.5 0.8 0.2 1.2 0.2 0.5 0.4 0.5 0.6 0.1 0.7-0.1 0.4-0.2 0.3-0.3 0.2-0.1 0.7-0.2 0.2 0 0.2-0.2 0.5 0.7 0 0.8-0.3 0.7-0.2 0.6 0.4 1.7 0 2.1-0.2 1.1-0.3 0.8 0 0.5 0.8 0.4 1.1-0.1 0.8-0.5 0.7 0.1 0.8 1.2-0.5-0.1-0.5-0.1-0.4 0.1-0.5 0.1 0.3 0.5 0.2 0.3 0 0.3-0.1 0.4 0.7 0.7 0.5 2.2 0.4 1.1z m10.5-52.6l0.5 1.9-0.3 2.2-0.9 1.9-1.1 1.5-0.6-0.5-0.1-0.7 0.3-0.7 0.4-0.8-0.7 0-0.9-0.3-0.4 0-0.4 0.7-0.4 0.5-0.6 0.2 0-0.2-0.3-0.5-0.5-0.5-0.4-0.2-0.6-0.3-0.3-1-0.8-0.2 0.7-1 0.7 0.5 0.7 1 0.8 0.6 0.6-0.4 0.2-1 0-1.6 0.4 0.5 0.6 1 0.5 0.4 0.3-0.6 0.3-0.1 0.3 0.2 0.2 0.5 0.4-0.9 0.2-0.8-0.2-0.6-0.8-0.4 0.6-0.4 0.6-0.2 0.5-0.1 0.5 0.4z m289.9 65.1l0.1 1.2-0.2 1.2-0.7 0.9-1.6 0.4-3.8-1.5-1 0.2-0.3 1.1 0.1 1.6 0.4 1.5 0.4 0.9-1.8-0.7-1.6-1.7-1-2.1-0.4-1.7-0.8-1.1-0.1-0.2-0.2-0.3 0-2-0.6-0.6-1-0.4-1.1 0.1-0.6 0.9 0.7 1.6 0.4 7.4 1.3 3.5 0.3 2.2 0.7 2.5-0.1 1.1-0.5 0.5-0.9-0.4-2.8-2.2-0.2-0.3-0.3-0.7-0.6-0.3-0.8-0.2-0.5-0.1-0.9-0.9-0.4-0.7-0.6-0.5-1.2-0.2-2.4 0-1.1-0.2-0.8-0.5-0.8-1.9 0.4-2.1 0.7-2.2 0.5-2-0.1-1.3-0.4-1.5-0.8-1.2-1.1-0.5-0.6-0.6-0.2-1.3 0.1-1.5 0.4-2.5 0.1-0.5 0.3-0.4 0.7-0.9 0.1-0.3 0.1-2.5 0.2-1.1 1.4-3.4 0.1-1 0-2.5-1.2-5.3-0.2-0.5-1.9-1.7-0.3-0.4-0.3-1-0.5-1-1.4-1.9-2.3-1.7-0.3-0.3-0.4-0.9-0.8-0.5-1-0.1-1.1 0.2-1.1 0.3-0.7 0.6-0.1 0.9 0.6 1 0.3 1-0.5 1.2-0.8 1.1-0.6 0.6-0.7 0.2-0.4 0-2-1.5-0.1-0.2-0.9 0.3-0.3-0.2-0.2-1.5-0.3-0.2-0.6 0.1-0.7 0-0.6 0.2-0.3-0.3 0.1-1 0.2-0.7 0.7-1 0.2-0.9-0.2-1.1-0.3-0.4-0.5-0.4-0.5-0.8-0.1-0.9 0.3-0.8 0.4-0.6 0.3-0.9 0.5-0.7 0.1-0.4-0.1-0.4-0.3-0.7-0.3-3.4 0-5-1 0.1-0.9-0.6-0.8-0.9-0.3-1 0.2-0.5 0.8-0.6 0.1-0.5-0.8-0.2-0.7-0.3-0.4-0.4 0.8-0.4-0.2-0.4-0.6-0.6-0.3-0.6-0.1-0.9-0.8-1.2-0.8-3.3 0.2-0.8 0.2-0.1 1.2-0.6 0.1-0.1 0.6 0.3 1.4 1.9 3.2 2.7 0.9 1.1 2 3.4 0.2-2.3 0.3-1.1 0.8 0.2 1.6 1.2 0.6 0.7 1.3 3.4 1.3 1.5 1.9 0.8 2.6 0.1 1.9-0.5 1.7-0.9 2.7-2.4 2-2.9 0.7-0.4 0.5 0.1 1.1 0.5 0.6 0.1 0.2-0.1 0-0.5 0.2-0.1 0.3 0.1 0.2 0.2 0.1 0.3-0.1 0.1 1.4-0.1 0.5 0.1 0.5 0.3 1.2 1 0.3 0.2 0.4 0.6-0.1 1.3-0.3 1.3-0.5 0.8-0.1 0.7 0.1 0.6 0.2 0.3 0.1 0.1 0.1 0.6 0.1 0.2 0.3 0.3 0.2 0.1 0.1 0.1 0.3 0.1 0.7 0.3 0.4 0 0.3 0.2 0.2 1.4 0.3 0 0.2-0.5 0.1-0.6 0.4 0 0.1 1.7-0.1 0.5-0.1 0.5-0.5 0.9-0.1 0.3 0.1 0.7 0.5 1 0.1 0.5-0.1 1.8 0.8 5.1-0.1 2.3-2.1 6.7-0.4 2.6 0.4 2.3 0.7 0.7 3.3 1.5 1.3 0.4 0.4 0.2 0.2 0.5 0.4 1.6 2.1 2.5 0.3 0.5 1 0.4 0.1 1.1-0.6 2.8 0.1 0.6 0.5 1.3 0.1 0.7-0.1 2 0.1 0.8 0.4 0.8 0.7 1.1 0.7 0.6 0.4-0.6 0.4 0 0.7 0.8 0.4 0.8 0.2 1 0.2 1.5z m-112.8-63.2l0.2 0.7-0.3 0.7-0.4 0.8-0.2 0.9 0.2 1.6 0 0.7-0.6 1.1 0 0.3-0.1 0.2-1 0.1-0.2 0.3 0 0.3-0.2 0.5 0.1 0-0.1 1.5 0 0.1-0.3 1-0.1 0.9 0.1 1.9 0.1 0.5 0.4 0.3 0.4 0.3 0.2 0.8-0.3 0.8-1.1 0.8-0.1 0.8-1.2-0.5-1.4-0.4-1 0.3-0.7 2.9-0.7 1-1.1 0.7-1.2 0.5 0.2 0.7-0.2 0.5-1.2 0.7 0.1-0.6 0-0.5-0.3-0.4-0.4 0-0.3 0.2-0.2 1.2-0.3 0.5-0.5 0.1-0.4-0.2-0.4-0.2-0.5-0.1-0.3 0.1-1.2 1 0-0.7-1.3 0.5-1.4 1.1-1.2 1.2-0.5 1.1 0.3 1.7 0.4 1.4 0.2 1.3-0.6 1.7-1.3 1.9-0.9 0.8-0.9 0.3-0.5-0.1-0.9-0.5-0.4-0.1-0.4 0.1-1.1 0.6-0.6 0.2-0.7 0.3-0.6 0.4-0.9 0.7-0.2 0.3-0.5 0.8 0.1 0.1 0.1 0.3 0 0.3-0.5 0.4-0.3 1.2-2.4 0.5-5.1 0.2-4.6 0.7-0.4 0.1-0.7 0.6-0.3 0.1-1.8-0.1-0.6 0.1-0.6 0.2-0.7 0.6-0.5 0.3-0.6 0-0.6-0.2-0.6 0-0.6 0.4-2.2 1.8-0.7 0.4-0.5 0.1-0.6 0-0.6 0.1-1.5 1.1-3.3 5.6-0.4 0.4-0.9 0.8-1.8 0.8-1.7-0.1-1.1-1.9 0.1-2.3 2.2-4 0.6-2.3 0-1.2-0.3-3.4-0.4-0.9-1.4-1.5-0.4-1.2 0.1-1 0.8-1.6 0.3-1.7 1-2.8 3.6-6.1 0.4-2.5 0-9.3-0.1-1.2-0.4-1.2-0.1-1.3 0.4-1.1 0.6-1 0.3-1.1 0.4-6.5 0.1-0.2 0.3-0.3 0.3-0.4 1.1-8.9-0.3-2-0.9-1.7-1.3-0.5-1.7 0-2-0.4-1.8-0.8-0.9-0.2-1.1-0.1-2.1 0-0.9-0.1-0.6-0.3 0.1-0.2 0-0.4 0.6-0.8 0.6-0.6 0.4-0.3 0.2-0.5 0.1-1.1 0.1-1.1-0.2-0.6 0.2-0.8 0.2-0.5 0.5-0.2 0.8 0 0.3-0.3 0.7-1 0.4-0.2 0.4-0.1 0.3-0.3 0.2-0.1 0.5 0.2 0.2 0.4 0.2 0.3 0.2 0.3 1.9 0.5 0.6 0.4 1.2 1.6 1 1 1.2 0.8 1.3 0.6 5.9 1.3 2 0.8 1.8 1.3 1.2 1 0.8 0.4 2.2 0.1 0.6 0.4 2.1 3.2 0.7 0.6 0.7 0.2 0.6 0.5 2.5 2.5 3.2 1.3 0.9 0.6 0.2 0.5 0.1 0.3 0.2 1 0.3 0.8 1 0.4 0.3-0.1 0.7-0.5 0.7-0.3 0-0.5-0.1-0.5-0.1-0.3 0.2-0.9 0.4-0.2 0.7 0.5 0.6 0.8 0.4 0.2 0.6 0-0.5-0.7 0.1-0.4 0.4-0.2 0.4-0.2 1-1.2 0.2-0.5-0.2-0.2-0.1-0.2-0.2-0.2 1.7-0.1 2 0.1 2 0.3 1.3 0.8 0.4 0.8 0.3 0.9 0.4 0.7 0.6 0.3 0.7 0.1 2.4 1-2.7 1.9-1 1.2 0 1 1.3 0.5 1.5-0.7 1.5-1.1 1.4-0.5 1.4-0.4 1.9-1.6 2.5-0.7 1.5-1 1.3-1.4 0.8-1.4 0.3 0 0.1 3.3-0.4 0.9-0.4 0.1-0.6 0.1-0.6 0.2-0.3 0.3 0.1 0.6 0.3 0.2 0.5 0.1 0.6-0.1-0.5 0.8 0.4 0.2 1.2-0.2z m-168.6-22.6l1.5 1.2 1.1 0.3 0.5 0.3-0.4 0.1-1.4 0.2-0.1 0.5 0.2 0.8-0.7 0.8 0 0.3 0.2 0.1 0.6 0.3 0-0.4 0.5 0.2 0.4 0.3 0.3 0.3 0.2 0.4-1 1.2-0.4 0.3 0.7 1.1-1 1.8-1.8 1.4-1.6 0.1-0.9 0.9-0.7-0.9-0.2-1.6 0.3-1.3 0.7 0.5 0.2 0.2 0.2 0.4 0.4 0-0.1-0.8-0.1-0.3-0.2-0.4 0.7-0.7 0.6-0.8 0.2-0.8-0.4-0.7-0.4 0.3-0.3 0-0.4-0.3-0.3 1.2-0.7 0.5-0.8-0.1-0.8-0.5-0.4-0.7-0.5-1.5-0.5-0.4 0.3-0.2 0.4-0.4 0.4-0.2-0.6-0.9-1.4-1.3-0.6-0.8-0.3-0.8-0.8-2.6 0.5 0.1 0.2 0.2 0.3 0.1 0.4 0 0 0.1 0.1 0.1 0.3 0.2 0.2 0 0.2-0.1 0-0.3 0-0.3-0.2-0.1 0.1-0.4 0.6-0.8 0.8-0.3 0.5 1.2 1.9 1.1-0.2 0.6 0.9 0.2 2.4 0 0.5 0.1 0 0.2-0.3 0.3-1.2 0.3 0.3 0.4 0.6 0.3 0.3 0.2z m17.3-7.5l0.3 0.7-0.2 0.5-0.6 0.4-0.7 0.3-0.7 0.2-0.4-0.1-0.2-0.3-0.5-0.2-0.9-0.1-0.7 0.3-0.6 0.4-0.7 0.2-0.7-0.3-0.6-0.5-0.6-0.3-0.7 0.3-0.1-0.9-0.7-0.2-0.9-0.1-0.8-0.3-0.5 0.4 0.4 0.7 0 0.6-0.2 0.6-0.2 0.7-0.4-0.2-0.3 0-0.1 0.2-0.2 0.4-0.4 0-0.8-1.5-0.6-0.4-2.3 0.4-0.9-0.3-1.1-0.6-0.9-0.8-0.7-1.6-1.6-1.8-0.3-1.1 0-0.8-0.1-0.7-0.3-0.5-0.5-0.6-0.4-0.6-0.1-0.8-0.2-0.8-0.6-0.7-0.6 0.5-0.6 0.6-0.4 0.8-0.3 0.8-0.6-0.4 0.1-0.4 0.5-0.5 0.4-0.6 0.1-0.7 0-0.6-0.1-0.8 0.3-1.1 0.7-0.4 1-0.3 1-0.6-1.4-0.1-0.5 0.1-0.4 0.4-0.1-2.2 0.4-0.8 1.2 0 1 0.4 0.4 0.8 0 0.9 0.1 0.5 0.8 0.2 2 0.3 0.9 0.2 0.9 0.5 1.5 1.2 1.2 1.4 0.4 0.3 0.5 0.2 0.9 0 0.5 0.2-0.6 0.1-0.4 0.3-0.2 0.5 0.1 0.6 1.2 0 2.9 2.2 1.3 0.8 0.2-0.6 0.3-0.3 0.5-0.1 0.5 0.2 0-5.1 0.4 0 0.7 1 0.4 0.9 0.1 0.8-0.1 1.5 0.4 0.6 0.7-0.2 0.8 0 0.3 0.9 0.2-0.1 0.1 0 0.1-0.3 1.6 1.6 0.7 0.9 0.3 0.7-0.2 0.8-0.4 0.3-0.4 0.1-0.5 0.5-0.3 0.8 0.3 0.2 0.4-0.1 0.3-0.5 0.3 0 0 0.1 0 0.1 0.1 0.2 0.4-0.4z m125.4-20.5l0 0.8-0.9 3.9-0.6 0.7-0.9 0.7-0.9 0.6-0.7 0.3-0.3-0.2-0.8-1.1-0.5-0.3-1.1-0.3-0.5-0.4-1.3-2.2-0.9-1.1-1.3-0.4-1.2-0.2-1-0.4-0.8-0.8-0.5-0.9 0-2 1.2-1.1 2-0.5 6 0 2 0.4 0.7 0.3 0.3 0.4 0.3 1.1 0.3 0.7 0.4 0.7 1 1.3z m162.2 68.7l0.9 1.7 1.7 1.8 1 1.8-1 1.6-0.5-0.4-1.2-0.7-0.5-0.4-0.5-1.8-0.1-0.1-0.1-0.2 0-0.3 0-1-0.1-0.2-0.3-0.1-0.8-0.4-0.2-0.3-0.8-0.6-0.8-0.4-0.4 0.4-1.8 1.1-0.5 0.2-0.7-0.2-0.2-0.6-0.1-0.6-0.4-0.5-0.6-0.2-0.3 0.1-0.4 0.3-0.6 0.2-0.2 0.4-0.2 1.9-0.2 0.7-1.5-1.4-0.9-0.6-0.7-0.1-1 1.2-0.6 0.5-0.8 0.4-0.1-0.9-0.4-0.5-0.5-0.1-0.5 0.7-1.3-1.1-0.5-0.4-2-0.3-0.3-0.2-0.2-0.4-0.6 0.1-1.6 0.6-0.3 0.4-0.2 0.5-0.7 1-0.1 0.4-0.3 0.1-0.3-0.1-0.4-0.2-0.4-0.4-0.4-0.7-0.2-0.8-0.3-2.9-0.6-2.3-1.4-2.1-2.1-0.9-2.4-0.2-2.5 0.2-2.2-0.4-0.5-1.5 0.5-4.5 0-0.4 0-0.4 0.1-0.3 0.3-0.4-0.4-0.2-1.1-0.9-0.4-0.2-0.7 0-0.4-0.2-0.7-0.5-0.7-0.6-0.4-0.7-0.4-0.8-0.8 1.7-0.4 0.3-1-0.1-0.7-0.3-0.6-0.5-0.5-0.6-0.4-0.9 0.8-0.4 0.5-0.5 0.4-0.5 0.5-0.4 0.9-0.3 0.7-0.1 0.2-0.3-0.7-0.8 3.1 0 0.7-0.4 0.9-0.9 0.8-1 0.4-0.7 0-0.9-0.3-0.8-0.2-0.8 0.3-0.7 1.2-1.3 0.8-1.2 0.3 0.3 0.9 0.5-0.1-1.3-0.6-1.1-0.9-0.7-1.2-0.3-0.9 0.3-2.2 1.3-1 0.3-1.9-1.1-3.1-4.6-2.1-0.7 0-0.4 0.3 0 0.4 0-0.5-0.2-0.2-0.1 0.7-1.5 0.2 0.1 0.3 0.1 0.3 0.2 0.3 0.3-0.2-1.1-0.8-0.6-0.8 0-0.9 1-0.9-0.2-0.5-0.5 0.8-0.5-0.3-0.5-0.3-0.2-0.4 0-0.5 0.4-0.1-1.5-0.2-0.8-0.2-0.6-2.7-2.8-2.1-0.9-2.1-0.5-1.7 0.2-1.5-0.8-2.6-1.7-2.5-3.1-1.1-1.1 0.1-0.1 0.2-0.3-1.3-0.7-0.9-1.5-2.6-9-3.5-8.1-0.1-0.8 0.1-0.6 0.4-0.7 0.5-0.5 0.6-0.2 0.4 0.2 2.5 1.9 0.2 0.1 0.6 0 1.4-0.6 0.4-0.1 0.3 0.1 1.4 0.6 0.8 0.3 3.4 0 0.2 0.1 0.6 0.4 0.1 0.1 0.2 0.3 0.2-0.1 0.3-0.2 0.2-0.1 1.3 0.1 1.1 0.2 4.5 0.4 10.1-0.8 0.5-0.1 0.5-0.4 0.5-0.8-0.3-0.5-0.5-0.5-0.2-0.6 0-0.4 1 0.3 0.7 0.6 0.5 0.7 0.5 0.3 0.8-0.4 0.9-0.5 0.8-0.2 0.3 0.9 0.5-0.1 1.2 0.5 0.9 0.6 0.2 0.2 0.3 0.1 0.3 0.2 0.3 0.2 0.7 0 0.4-0.2 0.7-0.4 0.5-0.4 0.3-0.4 0.1-1.1 0.5-0.3 1.6 0.5 0.5-0.1 0.5-0.2 0.5-0.1 0.5 0.2 1.2 1.3 2.7 1.7 1.3 1.1 0.1 1 0.6 0.6 1.1 0.7 0.5 0.6 0.6 1.4 0.4 0.5 0.8 0.7-1 0.6-0.9 1.2-0.3 1.4 1.1 1-0.3 0.2-0.2 0.3-0.2 0.7 0 0.3 1.6-1 0.6-0.2-0.1 0.5 0 0.4 0 0.3-0.3 0.3 0.6 0.3 0.6-0.2 1-0.8-0.3 1 0.5 0.2 2.1-0.1 1 0.5 1.8 1.5 0.8-0.1 0.3 0.6 1.2 1.5 0.5 1.5 0 0.6-0.9-0.5-0.4 0.4-1.3 0.2-0.5 0.2 0.5 0.2 0.4 0.2 0.3 0.3 0.3 0.4-1.5 0.4-0.7 0.2-0.4 0.5-0.1 1.1 0.6 0.2 1.7-0.1-0.1 0.2-0.1 0.4-0.1 0.1 0.4 0.4 0.7 0.7 0.5 0.8 0 0.6-1.8 1.5-0.5 0.6-0.6 1.1-1 1.3-0.3 0.9-0.1 1.1 0.1 1.2 0.1 0.3 0.6 1.6-0.1 1.7 0.1 0.5 0.3 0.4 1.4 1.3 0.2 0.5-0.2 0.5-0.4 0.3-1.4-0.5-0.5 0.9 0.1 1 1.1-0.4 0.6 0 0.5 1.1 0.5 2-0.1 1.4-0.5 0.3-0.6 0.1-0.6 0.8 0.7 0.3-0.2 0.6-0.4 0.6-0.1 0.8 0.2 0.5 0.3 0.1 0.4 0.1 0.4 0.2 0.2 0.4 0 1.3 0.2 0.9 0.2 0.5 1.2 1.7 0.4 0.9 0 0.8-0.6 0.9 0.5 0 0.2 0.1 0.4 0 0.4-0.1 0.3 1.3 0.2 0.6 0.4 0.3 0.6 0.2 1 0.8 0.6 0.1 0.1 0.3 0.6 0.7 0.7 0.6 0.3 0.1 0 1.4-0.2 0.9-0.4 0.7-3.3 2.5-0.6 1.1 0 2 0.9 1 1.5 0.2 1.7-0.6-0.8-1 0-0.8 0.7-0.2 2.5 1.8 1 0.6 0.7 0.8 0.3 1.6z m-88.9-35.6l0.2 0.9 0.5 1 0.3 1.1-0.2 0.9-0.8 0.2-0.7-1-1.1-2.2-0.7-0.7-1.8-1.6-1.5-0.6-1.2-1.3-1.8-0.6-0.8-0.7-1.1-1.6-0.7 0.4-0.9-0.2-2-0.9-1.3 0.5-1.1-0.6-1-1-0.7-0.5 0.3-0.7 0.3-0.5 0.5-0.2 0.8 0-0.8-1.5-0.3 0.5 0 0.2-0.4 0-0.4-0.7-0.7-0.7-0.7-0.6-1.4-0.6-0.4-0.8 0.1-0.7 0.9-0.1-1.1-0.3-1.1 0.1-0.8-0.2-0.6-2.2-0.6-0.9-1.7-1.7-0.7-1.2-0.4-0.3-1.5-0.7-0.5-0.2-0.9-0.4-1.3 0.1-1.2 0.4-0.8 0.4-0.6 0.7-1.7 2.4-0.4 1.4-0.5 0.7-0.5 0.6-0.5 0.2-0.6 0.1-0.3 0.2-0.4 0.8-3 3.5-4.5 4.2-1.2 0.7-0.5-0.6 0.1-1.2 0.3-1.3 0.4-1.1 0.5-0.4 0.6-0.2 0.3-0.3 0-0.5 0-0.7 0.1-0.7 0.3-0.6 0.4-0.5 0.3-0.6-0.1-2.1 0.3-1 0.9 0.4 0.3-0.7 0.4-0.6 0.5-0.4 0.8-0.1 0.4-0.3-0.2-0.6-0.7-1 0.7-0.5 0.7-0.3 0.5-0.5-0.1-1-1.8-0.1-1.2 0.1-1 0.4 0-0.4-0.1-1.6 0.1-0.2 0.1-0.1 1.5-2 0.2-0.8 0.2-1.6 0.8-2.7 0.1-1.3-0.1-0.9-0.3-0.4-0.5-0.4-0.7-0.6-0.6-6.3 0.2-0.7 0.4-0.1 0.5 0.1 0.5 0.4 0.8 0.3 1.6 0.3 0.8 0.2 0.5 0.4 0.4 0.4 0.5 0.3 0.5 0.1-0.1 0.1 0.1 0.2-1-0.2 0.1 0.9 0.9 1.9-0.3 0.5-0.7 0.4-0.6 0.7-0.3 0.9 0.3 0.7 0.6-0.4 1-1.3 0.1 0 0.5 0 0.3-0.1 0.1-0.3-0.1-0.5 0.1-0.2-0.1 0 0.3-0.7 0.4-0.6 0.2 0 0.4-0.4 0.9-0.1 1 0.2 0.8 0.3 1.7 1.7 0.8 0.7 1 0.4 1.8 0 0.3 0.3 0.6 0.9 0.4 0.4 0.5 1.1 0.7 1 0.8 0.5 0 0.3-0.6 0.1-0.4 0.3-0.2 0.5 0.1 0.7 1.8-1 0.8-0.1 0.4 0.9 0.2 0.3 0.5 0.1 0.6 0 0.5 0.1 0.6 0.4 0.4 0.4 0.4 0.5 3.4 5.9 1.4 1.5-0.3-2.5 0.4-0.8 1.2 0.8 1.7 1.7 0.7-0.1 0.6-0.4 0.5-0.1 0.4 0.6 0-0.4 0.5 1.1 2.8 4.6 0.3 0.2 0.8 0.3 0.4 0.2 0.2 0.5 0.5 1.8 0.3 0.5 2.2 2.9 0.6 0.9 0.2 0.9-0.9-0.5-1.1-1.7-0.9-0.7 0.1 0.5 0.3 0.4 0.7 0.9-0.6 0.5 0.2 0.6 1.1 1.6 1.3 2.8 0.2 0.7 0 1.3-0.3 1.5-0.1 0.6z m-95.2-44.2l1 1.7 0.7 2.1 0 1.9-1.7 1.5-0.8-1-0.5-1-0.2-1 0.1-1.2-0.1-0.2-0.1-0.2-0.2-0.4 0-0.3 0.2-0.3 0.4-0.1 0.2-0.3 0.3-1.2 0.3-0.4 0.4-0.3 0 0.7z m-8.8-3.3l1.7 0.4 0.5 0.5 0 0.9-0.2 0.3-0.9-0.2-0.3 0.3 0 0.5 0.3 3.1-0.3 1.7-1.2 3.8-0.4 4-1 3.9-1.6 4-0.4 0.6-0.4 1 0.6 0.7 0.7 0.7 0 0.8-0.7-0.7-0.3 0.4-1 0.9-0.2 0.4 0 2.8-0.4 0-1.1-1.3-0.3-0.8 0.3-0.9-1.4-0.1-0.3-0.9 0.2-2.8 0.5 1.3 0.8 0.3 0.6-0.6 0.3-1.2-0.1-0.7-0.5-0.2-0.6-0.2-0.6-0.2-2.2-2.2-0.5-0.4 0.2-2 0.5-2.2 0.7-1.1 1.7-0.7 0.8-1.6 0.2-2 0-1.9-0.3-3.2 0.2-1.2 1.3-1 3-0.9 1.6-0.8 0.5-1.3z m89.7 15.9l0.3 1.1 0.1 0.7-0.2 0.3-0.5-0.2-0.4-0.4-0.3-0.6-0.1-0.5-0.3-0.5-1.6-1.6-8-11.9-0.1-0.5 0-0.7 0.4 0 0.5 0.2 0.2-0.7 0.2-1.1 0.2-0.7 0.5 0 0.6 0.5 0.9 1.2 2.7 1.5 0.5 0.2-0.1 0.4-0.2 0.2-0.5 0.2 0.8 0 0.6 0.1 0.5 0.4 0.3 0.6-0.2 0.9 0.4 1.1 0.6 1.1 0.3 0.8 0.2 0.9 0.8 1.8 0.6 2.9 0.1 0.2 0.3 0.3 0 0.6-0.1 1.2z m-27.2-26.9l0.3 2.8 4 4.3 0.8 2.4-1.8-1.4-3.7-5.1-1.1-1.2-0.7-0.5-2.1-0.4-0.8-0.5-4-3.6-0.5-0.8-0.2 0-0.9-1-0.2-0.3-0.4-0.2-0.2-0.3-0.1-0.5-0.2-0.5-1.3-0.8-3.3-0.8-1.3-1.4-0.3-3.1 0-0.6 0.7-0.5 1-0.1 0.7-0.4 0.2-1.3 0.6 0.1 0.7 0.4 1.2 0.9 0.5 0.5 0.5 0.6 0.8 1.3 1.1 2.2 1.3 1.1 0.2 0.2 0.2 0.7 0.7 1.3 0.2 0.7 0.1 0.1 0.9 1.7 0.9 0.9 1.3 0.9 1.3 0.4 1.1-0.4 0.8 0.4 0.4 0.6 0.2 0.6 0.4 0.6z m-94 8.9l0 0.6 0.2 0.9 0.3 0.9 0.5 0.9 0.1 0.4-0.1 1.4-0.2 0.1-0.2 0-0.3 0.2-2.1 3.1-0.6 0.6-1.4 0.8-0.4 0.2-0.3-0.1-0.3 0-0.1 0.5 0.1 0.9 0.1 0.4 0.2 0.4-0.4 0.4-0.3-0.4-0.2 0.4-0.1 0.2 0.1 0.4 0.2 0.5-1 0.6 0.1 1.6 0.6 1.6 1 1.1 0 0.4-2.1-0.7-1.1 0.1-0.1 1 0.3 0.3 0.1 0.5-0.1 0.5-0.3 0.5 0.5 0.3 0.2 0.3 0.1 0.4 0 0.5-1.6-1-0.6-0.9-0.8 0.5-1.3 1.1-0.7 0.1-0.6 0.4-1 1-1.4 2.7-0.1 0.3-0.8 0-1.2-1.2-0.8-0.3-3.3 0-1-0.6-0.7-1.2-0.4-1.6 0.5-1.5 0.3 0.9 0.5 0.5 0.6 0.1 0.8-0.4-0.4-0.2-0.4 0.1-0.3 0.1-0.4-0.9 0-0.2-1.1-0.8-0.4 0.1 0 1.1-0.8-0.5-1.1-0.9-1-1.1-0.7-1.2-1.3-1.3-0.5-0.1-0.3-0.4-2.2-3.9-0.7-0.4-0.5-0.6 0.1-1.3 0.5-2.3 0-1.1-0.3-1-0.5-1-1.5-1.7-0.9-1.9-0.8-0.8-1.2-0.5-1 0-0.8-0.3-0.3-1.3 0-0.6-0.3-1-0.1-0.7-0.1-0.6-0.9-1.4 0-0.5 0.3-0.4 0.2-0.3 0.2-0.3 0-0.5-0.1-2.7-0.5-1.7-0.5-3-0.9-1.7-2.4-3.3-1.7-3.5-1.2-1.5-2.6-0.9-1-1.2-0.9-0.4-1.8 0.2-0.6-0.3 0.6-1-1.4-1.3-1-1.6-0.7-1.8-0.4-3.8-0.4-0.9-0.7-0.4-0.4 0-0.9 0.2-0.4 0.2-0.4 0.3-0.2 0.3-0.2 0.3-0.3 0.2-1 0.9-0.7 0.2-0.8-0.4-0.7-0.5-0.6-0.8-0.4-0.9-0.1-1 0.2-1.2 0.6-1.2 0.8-0.9 1.1-0.7 1.2-0.5 1.2 0 3.7 0.8 3.2 0.2 0.7-0.1 0.6-0.2 0.5 0 1.1 0.7 0.6 0.1 1 0.2 2.1 0 1.2 0.2 0.7 0.6 0.9-0.5 0.7 0.3 1 0.9 0.9 0.1 0.8-0.2 1.6-0.6 4.8-1.1 1.4-0.8 0.7 0.6 0.5-0.1 0.4-0.3 0.3-1 0.7 0.2 0.3 0 0.4-0.2 0.1 0.2 0.3 0.2-0.2 0.5-0.4 0.3-0.3 0.3-0.6 0 0.4 0.5 0.5 0.6 0.6 0.6 0.6 0.2 0.5 0.5 1.2 2.1 0.8 0.5 3.6-0.2 0.9 0.6-0.2 1.8 0.3 0 0.1-0.3 0.2-0.9 0.1-0.3 0.2-0.3 0.1-0.1 0.4-0.3 0.6-0.3 0.6-0.2 0.7-0.4 0.3-0.7 0.4 0 1.1 2.1 6.2 5.1 2.3 3.6 0.9 0.5 1.1 0.2 0.9 0.5 0.6 0.8 0.1 1.2-0.1 0.5-0.3 0.6-0.2 0.6 0.2 0.6 0.6 0.4 0.7-0.1 0.6-0.2 0.5-0.1 1.3 0 1.2 0.3 0.9 0.5 0.5 1.1-0.2 1.1-0.7 0.8-1.9 1.2-0.6 1-0.4 1.2 0 1.3 0.5 3.4 0 0.9-0.5 2.2 0.1 0.8-0.3 0 0.3 1.5 0.1 3.4 0.5 1.3 1.5 1.9 0.2 0.4z m30.8-39.2l0.2 0.4 1 0.7 0.3 0.5-0.5 1.7-3.1 3.2-1.2 1.6 0.5 1.1-0.5 1-1.7 1.4-0.8 0.2-0.9-0.6-0.7-0.8-0.5-0.5-0.6-0.2-1.8-1.6-0.5-0.2-0.9 0-0.4-0.2-0.6-0.4-0.9-1.5-1.6-1.7-0.2-0.6 0.2-1.3 0-0.4-0.2-0.8 0-2.9 0.2-0.8 0.3-0.5 1.5-2.6 0.1-0.5 0.1-1.6 0.2-0.3 0.8-0.2 0.7 0.8 1.2 1.7 0.2-0.3 0.6-0.6 0.3-0.3 0.8 0.9 1.2 0.3 1.2-0.4 0.4-1.1 0.7 0.4 0.5 0.5 0.2 0.6-0.2 0.8 0.8-0.3 0.6 0.3 0.2 0.5-0.5 0.6 0.2 0.2 0.6 0.4 0.3 0.1 0.8-0.5 1.1 0.3 1 0.8 0.4 1-0.2 0.2-0.4 0.1-0.5 0 0 0.4 0 1z m-98.7-16.3l0.5 0.2 0.4 0.1 0.3 0.2 0.1 0.6-0.9 0.7-0.2 0.3-0.3-0.5-0.4-0.6-0.4-0.6-0.5-0.2-0.8-0.2-0.3-0.4-0.2-0.5-0.4-0.4-0.5-0.4-0.6-0.2-0.6-0.2-0.7 0-0.3-0.2-0.6-0.7-1.8-0.6-0.8-1-0.5-1.3-0.2-1.3 0.1-0.6 0.2-0.4 0.4-0.3 0.6 0 0.8 0.3 1.3 0.6 1.1 0.8 0.3 0.6 0.8-0.3 1 0.3 1 0.5 0.9 0.6 1.8 2.8-0.3 0.7-0.5 0.4-0.2 0.5 0.4 0.7z m222.9-8.9l0 0.4-0.8 0.5-0.7 0.6 0.7 0.4 0.4 0.7 0.1 0.8 0.3 0.7-1 0.4-0.5 0.1 0.4 0.5 0.1 0.5-0.2 1.6-0.3 1.1 0 0.6 0.9 1.5 0.1 0.9-1.2 0.4-1.1 0-0.6 0.1-0.2 0.4-0.1 1-0.8 3.4 0 0.8-0.8-0.6-0.7-1.1-0.7-0.9-0.7 0.3-0.6-0.2-0.9 0.2-0.9 0.4-0.7 0.6-0.4 0.7-0.4 1.1-0.4 1-0.7 0.4-0.9-0.4-2.9-2.6-1.6-1.2-0.9-0.4-1.2 0 0.2-0.7-0.1-0.8-0.5-0.7-0.5-0.6-0.2-0.7 0.5-0.6 1.4-0.8 1.4-1.2 1-1.6 0.8-1.9 0.4-2.1-0.4-3.2 0.2-0.8 0.6-0.9-0.1-1-0.8-2.1-0.2-1 0-0.4 0.3-0.3 0.4-0.4 0.4-0.5-0.2-0.5-0.4-0.8 0-0.9 0.2-0.8 0.4-0.8 0.7 0.9 0.8-0.2 1.1-1 0.5-0.3 0.4-0.1 0.3 0 0.4 0.3 1.1 1 0.9 1.2 0.7 1.3 0.5 1.5 0.1 2.2 0.6 0.2 0.4 0.4 0.7 0.9-0.4 0.5 0.3 0.3 0 0.2 0.1 0.2 0.4 0 0.8-1.4 1.5 0.7 3.2 2.6z m-124-12.7l2.4 1.7 1.2 1 0.6 1.3-0.4 1.3-1 0-1.1-0.7-2-1.7-3.6-2.3-2.1-2-0.6-0.3-0.9-0.5-1-1.3-0.9-1.4-0.3-1 0.1-0.7 0.4-0.4 0.6-0.2 0.7 0.2 0.3 0.2 0.2 0.2 0.5 0.6 6.9 6z m7-38.5l0.7 0.5 0.4 1.2 0 1.2-0.8 0.5 0-0.2-4.2-3.2-1.5-0.2-0.7-0.3-0.4-0.4-0.2-0.7-0.3-0.6 0-0.3 0.9 0.2 0.1-0.2 0.6-0.5 0.2 0.7 0.4 0.3 0.6 0 0.7-0.3 1.8 0-0.4 0.4-0.2 0.4 0 0.6 0.2 0.6 0.5 0.4 0.6 0.1 1-0.2z m-12.4-11.8l1.3 0.1 1 0.5 0.6 0.9-0.3 1.2-1.2-1.4-0.6-0.4-0.8 0.2-0.5 0.6-0.1 0.6 0.2 0.3 0.4-0.3 0.5 1.4-0.1 0.6-0.5 0.4-1.7 1.1-0.2 0.2 0.1 0.3 0.1 2 0.1 0.5 0.3 0.7 1-0.1 0.6 0.9 0.4 1.4 0.5 3.5-0.1 0.8-1 2.7-1.1 0.9-1.2 0.7-1.1 0.3-1.3-0.5-0.4-1.3 0-1.4 0.4-1.4 1-0.2-0.1-2.2-0.8-2.5-1.1-1.2-0.8-0.2-0.2-0.7 0.1-1.9-0.2-0.6-1.2-1.8-0.4-0.5-0.9-0.3-0.5 0-0.2-0.3 0.5-3.7 0.3-1.3 0.6-0.5 1.6 1 1.1 0.1 0.4-0.9 0.4-0.5 1-0.1 2.2 0.3 0.8 0.5 0.5-0.3 0.6 0.3 0.4 0.6-0.4 0.9z m-33-218.2l1.5-0.3 0.7 0.1 0.7 0.6 0.4 0.4 0.4 0.3 0.5 0.1 0.6 0-1.3 0.9-1.2 0.6-1.3 0.3-4.8 0.4-1.2-0.2-0.9-0.9-0.2-0.8 0.3-0.2 1-0.1 2.9-1 1.9-0.2z m31.2-4.6l0.7 0.5 0.4 0.8-0.1 0.7-1.4 0.6-1.1 1.6-0.7 0.8-1.9 1.6-0.7 1-0.3 1.1-0.5 0.5-1-0.1-0.7-0.6 0.3-0.8 0-1.1 1.1-0.9 0.7-1-1.1-1.3 0.6-0.6 0.4-0.9 0.1-0.8-0.1-0.4 0.4-0.2 0.7-1.2 0.5-0.5 0.3 0 0.4 0.3 0.3 0.1 0.2-0.2 0.1-0.1 0.8-0.4 0.3-0.1 0.5 0.2 0.2 0.4 0.3 0.6 0.3 0.4z m-40.7-10.9l0.4 0.3 0.4 0.3 0.2 0.4 0.4 2.3 0.8 2.1 0.3 2-0.7 1.6-1.9-1.9-0.7-0.8-0.4-1.3 0.2-1.3 0.8-2.4 0.2-1.3z m16.9-8.2l0.6 0.8 0.1 0.2 0 0.2 0.2 0.2 0.1 0.3 0.1 0.4-0.2 0.3-0.5 0-0.5-0.1-0.3 0.1-0.4 0.2-0.1 0.4-0.2 0.3-0.4 0.2-1.5-0.6-0.3-0.3-2.1-1.2-0.3-0.1-0.4 0-0.4 0-0.4-0.3-0.3-0.5-0.6-1.3-1.7-2 0.1-0.3 0.9-0.2 0.6-0.3 0.9-1.1 3 1.1 1 0.1 1-0.2 0.8-0.4 0.6 0 0.6 0.6 0 2.7-0.1 0.2 0 0.2 0.1 0.4z m24.1-14.6l0.3 0.1 0.5 0.3 0.3 0.3 0 0.3-0.3 0.7-0.2 2-0.5 0.8-0.9 0.4-0.8-0.3-1.2-1.3-1-0.6-0.4-0.4-0.1-0.5 0-0.6 0.2-0.2 0.3 0.1 1.1-0.3 0.8 0.2 0.5 0 0.4-0.2 0.6-0.7 0.4-0.1z m-7.2-43.8l0.9-0.1 1.1 0.8 0.7 1.1 0 0.9-1.2 1.3-0.5 0.1-0.5 0-0.7-2.7 0-0.7 0-0.4 0.2-0.3z m9-8.2l0.5 0.1 0.4 0.3 0.3 0.5 0 0.5-0.3 0.5-1.9 1.3-1.2 1.1-0.3 0.4 0.1 0.7 0.3 0.5 0.2 0.4-0.2 0.6-0.7 0.7-1 0.4-0.9-0.3-0.3-1.3 0.3-0.9 2.2-3.4 0.1-0.5 0.8-0.7 0.9-0.6 0.7-0.3z m-7.1-16.1l-0.5 1.5-0.9 1.4-1.2 1.2-1.4 0.4-0.9-0.7 0.3-1.5 0.7-1.7 1-1.6 0.8-1.9 0.4-0.6 0.5-0.4 0.6 0 0.4 0.6 0.3 0.8 0.1 0.8-0.1 0.9-0.1 0.8z m-128.4 878.3l0.2 1 0.8 1.8 0.2 0.9-0.1 1-0.1 0.9-0.3 0.8-1.5 3.6-0.6 0.5 0-3.3 0.3-3.1-0.3-3.6-0.4-1.7-0.7-1.5 0.6-0.2 0.6 0.2 0.6 0.4 0.3 0.6 0.2 0.4 0.1 0.4 0.1 0.5 0 0.4z m93-52.2l0.7 0.3 0.2 0.3-0.2 0.5-0.3 0.1-1.5-0.1-1.9 0.7-0.8-0.1-0.6-0.9 0-0.8 0.4-0.7 0.5-0.5 0.6-0.2 0.9 0 0.8 0.4 0.7 0.5 0.5 0.5z m8.8-9.9l1.2 0.3 0.9 0.7 0.4 0.9-0.5 1.2-0.5 0.2-0.5 0-0.5 0.2-0.1 0.7 0 0.9-0.2-0.1-2 0.3-0.4 0.2-0.5 0.4-1.5 1.6-0.6 0.4-0.6 0-0.5-0.3-0.5-0.4-0.5-0.8 0-0.6 0-0.5 0-0.5-1.3-1.4-2.1 0.1-4.4 2-1 0.6-0.4 0.2-0.4-0.1-0.4-0.2-0.6-1-0.3-0.2-2.2-0.4-0.5 0.2-1.9 1.2-1.1 0.6-0.5 0-0.6-0.2-0.3-0.2 0-0.3 0-0.4-0.1-0.2-0.3-0.2-0.7-0.1-0.3-0.2-0.8-1.2-0.2-1 0.2-1 0.7-1.1 0.9-0.8 2-0.9 1.5-1 1.2-0.2 0.4-0.2 1.2-1.7 0.5-0.4 0.5-0.1 1.9 0.1 1 0 1 0 0.6 0.3 1.2 0.7 0.6 0.1 1 0.6 1.3 2.8 0.8 0.7 1-0.2 0.9-0.8 1-0.5 2.4 1.1 1.2 0.1 2.3 0z m13.3-35.2l0 3.7-0.3 1.2-0.4 0.3-0.3-0.5-0.2-1.1-0.3-0.8-0.6-0.8-0.4-0.6 0.4-0.3 0.5-0.5 0.4-0.9 0.5-0.5 0.7 0.8z m-28.7-230l0 1.2-0.7 1.8 0.3 1-1.3 0.3-1.5-0.1-0.9-0.8 0.4-1.7 0.4-0.3 1.8-1.1 1-1 0.4-0.1 0.1 0.8z m-43.4-56.5l-0.1 0.1-0.5 0.1-0.3 0.1-0.2 0.4 0.1 0.4 0.2 0.3 0.1 0.3-0.4 1.4 0 0.6 0.1 0.6 0.6 1 0.1 0.5-0.6 0.4-0.7-1.1-0.9-2.7-1.9-3.4 0.6-0.1 2.4-1 0.5 0 0.5 0.1 0.3 0.4 0.1 0.5 0 1.1z m60.1-7.3l0.4 0.8 0.2 1-0.2 0.8-0.6 0.7-1 0.1-0.6-0.6-0.4-0.9-0.2-0.8 0-0.4 0.4-1.2-0.2-0.5-0.3-0.4-0.2-0.3 0.3-0.6-0.1-0.4 0-0.2 0.5 0.3 2 2.6z m-77.5 173.5l0 0.2-0.1 0 0.1-0.2z m0.5 0l-0.1-0.2 0.2 0.1 0 0.1-0.1 0z m-0.2-0.4l0 0.1-0.1 0.1 0-0.1 0-0.1 0.1 0z m0.1-0.2l0 0.1-0.1-0.1 0.1 0z m94.2-219.7l-0.2 0.1-0.2 0.1 0.1 0.2 0.2 0.2-0.3 0.2-0.3 0-0.3-0.3-0.2 0.1-0.2-0.1-0.4-0.5-0.3-0.3-0.1-0.2-0.1-0.6 0.4-0.7 0.6-0.1 0.7 0.1 0.3 0 0.4 0.4 0.3 0.6-0.2 0.6-0.2 0.2z m-34.1-33.9l-0.9-0.3-1.5-1.4 0-0.4 0.4 0 0.4 0.2 0.4-0.1 0.6-0.3 0.4 0.1 0.3 0.4 0.2 1.4-0.3 0.4z m45.5-423.5l-0.4 0.1 0.3-0.5 0.1 0.4z m0.5-2.9l0.2-0.3 0.2 0.2-0.3 0.6-0.1-0.5z m-113.4 899.9l1.2 0.6 0.2 0.6-0.4 0.1-0.9 0-0.8-0.4-0.3-0.7 1-0.2z m0.3-2.3l-0.9 0-1.2-0.9-0.4-1.4 0.1-0.9 0.6-0.3 0.7 0.3 0.3 0.4 1.1 0.5 0.4 1 0 0.7-0.4 0.5-0.3 0.1z m-2.2-10.5l-0.2 0.1-0.1 0.2-0.2 0.3-0.6 0.3-1.3 0.3-0.3-0.4 0.2-1.1 1.1-1.8 0.7-0.8 0.8-0.5 0.4 0.1 0 0.8 0.1 0.6 0.2 0.6 0.1 0.7-0.3 0.6-0.3 0.2-0.3-0.2z m301.4-19.8l0.2 0.3 0.2 0.7-0.1 1.6-0.3 0.5-0.3 0-0.7-0.2-1 0.1-0.9 0.2-0.7-0.3-0.4-0.5-0.5-0.3 0-0.3 0.4-0.4 0.9-1.2 1-0.5 1.5 0 0.7 0.3z m-244.4-15l1.1 0.5 0.2 0.5-0.5 0.1-0.8 0.4-1.1 0.4-1 0.1-0.6 0.2-0.5-0.2-0.2-0.6 0.6-0.9 1.4-0.6 0.8 0 0.6 0.1z m2.4-3l0.7 0.4 0.7 1-0.3 1.2-0.8 0.6-1-0.5 0.1-1.7 0.6-1z m157.5-210.1l1 0.7 0.4 0.5-0.3 0.7-1 1-2.1 1.6-1 0.4-1.1 0.1-0.8-0.2-0.7-1.3-0.6-0.5 0.1-0.2 0.6-0.2 0.5-0.2 0.3-0.4 0.6-0.4 0.9-0.6 2.1-0.8 1.1-0.2z m41-27.1l-0.6 0.9 0 0.9 0.1 0.7-0.4 0.5-0.8-0.3-0.7 0.3-0.6 0.9-0.5 0.4-0.6-0.4-0.3-0.5 0-0.5-0.1-0.6 0-0.7 0.3-0.3 0.4 0.1 0.4-0.1 0.2-0.3 0.3-0.2 0.3 0 0.5-0.1 0.7-0.5 0.3-0.3 0.4-0.1 0.7-0.2 0 0.4z m-167.9-94.3l1.9 0.6 0.8 0.5-0.4 0.5-1.2 0.6-1.2 0-0.9-0.3-0.6-0.2-0.3 0-0.2-0.2-0.3-0.2-0.2 0.1-0.4 0.2-0.3-0.1 0.1-0.5 0.6-0.7 0.9-0.3 0.5-0.1 1.2 0.1z m146.4-11.7l1.2 0.4 0.1 0.5-1.1 0.2-0.6 0.4-1.1 0.8-0.7 0.1-0.8-0.4-0.2-0.5 0.4-0.6 0.6-0.6 0.9-0.3 1.3 0z m-165.6-6.4l0.6 1.2 0.2 0.6-0.2 0.3-0.5 0.1-0.5-0.3-0.5-0.4-0.5-0.2-0.4-0.5-0.2-0.8-0.5-0.8-1-0.5-0.6-1.7 1.1-1.4 1.5 0.6 0.5 1.2 0.4 1.8 0.2 0.5 0.3 0.2 0.1 0.1z m163.6-11l-1-0.9-0.7-1.3-0.1-1.2-0.1-0.6 0.5 0.1 1 0.7 0.8 1.3 0.3 1.4-0.7 0.5z m-1.1-43.3l-0.6-0.2-1.2 0-0.9-0.2-1.5-0.6-0.2-0.4 1-0.3 1.6-0.6 0.5-0.3 0.8-0.1 2.2 0.6 1 0.6 0.6 0.9 0 1-0.7 0.3-1.8-0.4-0.8-0.3z m-3.3-4.1l-0.7 0.3-0.3 0.2-0.3 0.3-0.3 0.5-0.5 0.5-0.4 0.1-0.8 0.2-0.4-0.1-1-0.3-1.2-0.4-1 0-1-0.4-0.9-0.8-0.4-0.7 0-0.5-0.1-0.3 0-0.2 0.1 0 0-0.1 2.6 0.2 1.3 0.6 0.4-0.1 0.4-0.2 0.7 0.1 0.1 0 0 0.1 0.5 0.4 0.3 0.2 0.3-0.1 0-0.3 0.1-0.2 0.4 0 0.5 0.1 0.7 0.2 0.8 0.3 0.1 0.2 0 0.2z m-10.5-0.8l0.3 0.9 0.4 0.6-0.1 0.5-0.9 0.5-0.6 0-0.5-0.9-0.3-0.3-0.7-1.1-0.1-0.6 0.3-1 0.1-1-0.2-0.7-0.6-0.8 0.2-0.2 0.5-0.3 0.5 0 2.2 0.8 0.3 0.2 0.4 0.2 0.5 0.1 0 0.6-1.4 1.5-0.3 1z m-4.8-5l-1.4-1.5-0.2-0.6 0.9 0.2 0.9 0.4 0.9 0.7 0.3 0.4 0.3 0 0.6 0 0.1 0.3-0.6 0.6-0.6 0.2-1.2-0.7z m-74.5-75.2l0.4 0.3 0.1 0.9-1.2 1-1.2 0.3-1.2 0.1-1.8-0.2-0.2-0.9 1.4-0.8 1.2-0.4 0.9-0.5 0.8-0.2 0.8 0.4z m-129-85.8l0.3 0.8 0.1 0.7-0.4 0.5-0.6 0.1-0.7-0.5-0.2-0.4-1.1-0.9-1.1-1.4-0.6-0.4-0.1-0.5 0.2-0.5 0.9-0.9 0.5-0.2 0.5-0.1 0-0.3 0.2-0.3 0.4-0.3 0.6 0.1 0.4 0.3 0.2 0.3 0.1 0.4 0.4 1.1 0 2.4z m213.7 327.6l1 0.7 0.6-0.3 1-0.7 0.2 0.3-0.9 1-1.1 1-0.9 1.1-0.7 0.7-1 0.1-0.6 0.4-0.7-0.5 0.1-1 0-0.9 0.7-0.9 1.7-0.8 0.6-0.2z" id="PH" name="Philippines">
  </path>
 </g>
 <g id="points">
  <circle class="5.479040784343548|117.43806399941874" cx="266.9" cy="910.2" id="0">
  </circle>
  <circle class="12.065710738147937|122.26944421015901" cx="525.9" cy="552.7" id="1">
  </circle>
  <circle class="20.299048180403425|126.13454837875122" cx="733.1" cy="92.6" id="2">
  </circle>
 </g>
 <g id="label_points">
  <circle class="Philippines" cx="478.5" cy="284.6" id="PH">
  </circle>
 </g>
</svg>